<svg width="42" height="42" viewBox="0 0 42 42" fill="none" xmlns="http://www.w3.org/2000/svg">
<path d="M21.3546 12.6092C22.6593 12.6092 24.2948 11.7272 25.2687 10.5511C26.1508 9.48533 26.7939 7.99688 26.7939 6.50843C26.7939 6.30629 26.7755 6.10416 26.7388 5.93878C25.2871 5.9939 23.5414 6.9127 22.4939 8.14389C21.667 9.08106 20.9136 10.5511 20.9136 12.058C20.9136 12.2785 20.9504 12.499 20.9687 12.5725C21.0606 12.5909 21.2076 12.6092 21.3546 12.6092ZM16.7606 34.8442C18.5431 34.8442 19.3333 33.6497 21.5568 33.6497C23.817 33.6497 24.3132 34.8074 26.2978 34.8074C28.2456 34.8074 29.5503 33.0066 30.7815 31.2425C32.1597 29.2211 32.7293 27.2365 32.7661 27.1446C32.6375 27.1079 28.9071 25.5827 28.9071 21.3011C28.9071 17.5891 31.8473 15.9169 32.0127 15.7883C30.0648 12.9951 27.1063 12.9216 26.2978 12.9216C24.111 12.9216 22.3286 14.2447 21.2076 14.2447C19.9948 14.2447 18.3961 12.9951 16.5034 12.9951C12.9017 12.9951 9.24487 15.972 9.24487 21.5951C9.24487 25.0865 10.6047 28.7801 12.2769 31.169C13.7102 33.1903 14.9598 34.8442 16.7606 34.8442Z" fill="white"/>
</svg>
