<svg width="24" height="24" viewBox="0 0 24 24" fill="none" xmlns="http://www.w3.org/2000/svg">
<g clip-path="url(#clip0_151_1413)">
<path d="M9 17C9 17.7956 9.31607 18.5587 9.87868 19.1213C10.4413 19.6839 11.2044 20 12 20C12.7956 20 13.5587 19.6839 14.1213 19.1213C14.6839 18.5587 15 17.7956 15 17" stroke="#5D5E7E" stroke-width="2" stroke-linecap="round" stroke-linejoin="round"/>
<path d="M5.24988 9.5C5.24988 7.70979 5.96104 5.9929 7.22691 4.72703C8.49278 3.46116 10.2097 2.75 11.9999 2.75C13.7901 2.75 15.507 3.46116 16.7729 4.72703C18.0387 5.9929 18.7499 7.70979 18.7499 9.5C18.7499 12.8581 19.528 14.8063 20.1468 15.875C20.2125 15.9888 20.2471 16.1179 20.2472 16.2493C20.2474 16.3808 20.2129 16.5099 20.1474 16.6239C20.0819 16.7378 19.9876 16.8325 19.874 16.8985C19.7603 16.9645 19.6313 16.9995 19.4999 17H4.49988C4.36861 16.9992 4.23985 16.964 4.12646 16.8978C4.01308 16.8317 3.91904 16.7369 3.85375 16.6231C3.78845 16.5092 3.7542 16.3801 3.7544 16.2489C3.75459 16.1176 3.78925 15.9887 3.85488 15.875C4.4727 14.8063 5.24988 12.8572 5.24988 9.5Z" stroke="#5D5E7E" stroke-width="2" stroke-linecap="round" stroke-linejoin="round"/>
</g>
<defs>
<clipPath id="clip0_151_1413">
<rect width="24" height="24" fill="white"/>
</clipPath>
</defs>
</svg>
