<svg width="24" height="24" viewBox="0 0 24 24" fill="none" xmlns="http://www.w3.org/2000/svg">
<g clip-path="url(#clip0_151_1375)">
<path d="M9 17C9 17.7956 9.31607 18.5587 9.87868 19.1213C10.4413 19.6839 11.2044 20 12 20C12.7956 20 13.5587 19.6839 14.1213 19.1213C14.6839 18.5587 15 17.7956 15 17" stroke="#5D5E7E" stroke-width="2" stroke-linecap="round" stroke-linejoin="round"/>
<path d="M5.25001 9.5C5.25001 7.70979 5.96116 5.9929 7.22703 4.72703C8.4929 3.46116 10.2098 2.75 12 2.75C13.7902 2.75 15.5071 3.46116 16.773 4.72703C18.0388 5.9929 18.75 7.70979 18.75 9.5C18.75 12.8581 19.5281 14.8063 20.1469 15.875C20.2126 15.9888 20.2472 16.1179 20.2474 16.2493C20.2475 16.3808 20.2131 16.5099 20.1475 16.6239C20.082 16.7378 19.9877 16.8325 19.8741 16.8985C19.7604 16.9645 19.6314 16.9995 19.5 17H4.50001C4.36874 16.9992 4.23997 16.964 4.12659 16.8978C4.0132 16.8317 3.91916 16.7369 3.85387 16.6231C3.78858 16.5092 3.75432 16.3801 3.75452 16.2489C3.75472 16.1176 3.78937 15.9887 3.85501 15.875C4.47282 14.8063 5.25001 12.8572 5.25001 9.5Z" stroke="#5D5E7E" stroke-width="2" stroke-linecap="round" stroke-linejoin="round"/>
<circle cx="18" cy="6" r="3" fill="#96E8CA"/>
</g>
<defs>
<clipPath id="clip0_151_1375">
<rect width="24" height="24" fill="white"/>
</clipPath>
</defs>
</svg>
