<svg width="24" height="24" viewBox="0 0 24 24" fill="none" xmlns="http://www.w3.org/2000/svg">
<rect width="24" height="24" rx="8" fill="#FCB853" fill-opacity="0.2"/>
<g clip-path="url(#clip0_151_1626)">
<path d="M7.91049 15.9375C7.91049 15.9375 9.37502 15.0625 12 15.0625C14.625 15.0625 16.0896 15.9375 16.0896 15.9375L18.113 9.7365C18.1277 9.69437 18.1296 9.64879 18.1182 9.60563C18.1068 9.56246 18.0828 9.52368 18.0493 9.49427C18.0157 9.46486 17.9741 9.44618 17.9298 9.44062C17.8855 9.43505 17.8405 9.44287 17.8007 9.46306L14.8788 10.9199C14.8282 10.9449 14.77 10.9501 14.7159 10.9343C14.6617 10.9185 14.6154 10.8829 14.5862 10.8346L12.1925 6.85939C12.1725 6.82658 12.1444 6.79946 12.1109 6.78065C12.0773 6.76183 12.0396 6.75195 12.0011 6.75195C11.9627 6.75195 11.9249 6.76183 11.8914 6.78065C11.8578 6.79946 11.8297 6.82658 11.8097 6.85939L9.41385 10.8363C9.3847 10.8848 9.33833 10.9205 9.28399 10.9363C9.22966 10.9521 9.17135 10.9469 9.12073 10.9216L6.20315 9.4658C6.16331 9.44573 6.11839 9.438 6.07413 9.4436C6.02987 9.4492 5.98829 9.46787 5.95471 9.49723C5.92112 9.52659 5.89705 9.5653 5.88559 9.60841C5.87412 9.65152 5.87577 9.69707 5.89033 9.73924L7.91049 15.9375Z" stroke="#FCB853" stroke-width="2" stroke-linecap="round" stroke-linejoin="round"/>
</g>
<defs>
<clipPath id="clip0_151_1626">
<rect width="14" height="14" fill="white" transform="translate(5 5)"/>
</clipPath>
</defs>
</svg>
