<svg width="24" height="24" viewBox="0 0 24 24" fill="none" xmlns="http://www.w3.org/2000/svg">
<g clip-path="url(#clip0_151_1426)">
<path d="M4.98931 18.75C4.98931 18.75 7.49993 17.25 11.9999 17.25C16.4999 17.25 19.0106 18.75 19.0106 18.75L22.4793 8.11966C22.5046 8.04745 22.5077 7.96931 22.4883 7.89531C22.4688 7.8213 22.4276 7.75482 22.37 7.70441C22.3125 7.654 22.2411 7.62197 22.1652 7.61243C22.0893 7.6029 22.0122 7.6163 21.944 7.65091L16.9349 10.1484C16.8482 10.1913 16.7485 10.2 16.6557 10.173C16.5628 10.1459 16.4835 10.0849 16.4334 10.0022L12.3299 3.18748C12.2956 3.13123 12.2474 3.08474 12.1899 3.05249C12.1325 3.02024 12.0677 3.0033 12.0018 3.0033C11.9359 3.0033 11.8711 3.02024 11.8137 3.05249C11.7562 3.08474 11.708 3.13123 11.6737 3.18748L7.5665 10.005C7.51653 10.0881 7.43704 10.1494 7.34389 10.1765C7.25073 10.2036 7.15078 10.1946 7.064 10.1512L2.06243 7.6556C1.99414 7.6212 1.91713 7.60794 1.84126 7.61754C1.76539 7.62714 1.69411 7.65915 1.63653 7.70948C1.57896 7.75981 1.5377 7.82617 1.51804 7.90007C1.49839 7.97398 1.50122 8.05207 1.52618 8.12435L4.98931 18.75Z" stroke="#FCB853" stroke-width="2" stroke-linecap="round" stroke-linejoin="round"/>
</g>
<defs>
<clipPath id="clip0_151_1426">
<rect width="24" height="24" fill="white"/>
</clipPath>
</defs>
</svg>
