<svg width="34" height="34" viewBox="0 0 34 34" fill="none" xmlns="http://www.w3.org/2000/svg">
<rect width="34" height="34" rx="8" fill="#1E2142"/>
<g clip-path="url(#clip0_151_1425)">
<path d="M9.98931 23.75C9.98931 23.75 12.4999 22.25 16.9999 22.25C21.4999 22.25 24.0106 23.75 24.0106 23.75L27.4793 13.1197C27.5046 13.0474 27.5077 12.9693 27.4883 12.8953C27.4688 12.8213 27.4276 12.7548 27.37 12.7044C27.3125 12.654 27.2411 12.622 27.1652 12.6124C27.0893 12.6029 27.0122 12.6163 26.944 12.6509L21.9349 15.1484C21.8482 15.1913 21.7485 15.2 21.6557 15.173C21.5628 15.1459 21.4835 15.0849 21.4334 15.0022L17.3299 8.18748C17.2956 8.13123 17.2474 8.08474 17.1899 8.05249C17.1325 8.02024 17.0677 8.0033 17.0018 8.0033C16.9359 8.0033 16.8711 8.02024 16.8137 8.05249C16.7562 8.08474 16.708 8.13123 16.6737 8.18748L12.5665 15.005C12.5165 15.0881 12.437 15.1494 12.3439 15.1765C12.2507 15.2036 12.1508 15.1946 12.064 15.1512L7.06243 12.6556C6.99414 12.6212 6.91713 12.6079 6.84126 12.6175C6.76539 12.6271 6.69411 12.6592 6.63653 12.7095C6.57896 12.7598 6.5377 12.8262 6.51804 12.9001C6.49839 12.974 6.50122 13.0521 6.52618 13.1244L9.98931 23.75Z" stroke="#FCB853" stroke-width="2" stroke-linecap="round" stroke-linejoin="round"/>
</g>
<defs>
<clipPath id="clip0_151_1425">
<rect width="24" height="24" fill="white" transform="translate(5 5)"/>
</clipPath>
</defs>
</svg>
