<svg width="36" height="36" viewBox="0 0 36 36" fill="none" xmlns="http://www.w3.org/2000/svg">
<g clip-path="url(#clip0_151_1393)">
<g clip-path="url(#clip1_151_1393)">
<path fill-rule="evenodd" clip-rule="evenodd" d="M-6.54541 -0.409058H63.4091V2.42901H-6.54541V-0.409058ZM-6.54541 5.25941H63.4091V8.09748H-6.54541V5.25941ZM-6.54541 10.9202H63.4091V13.7583H-6.54541V10.9202ZM-6.54541 16.581H63.4091V19.4191H-6.54541V16.581ZM-6.54541 22.2571H63.4091V25.0799H-6.54541V22.2571ZM-6.54541 27.9103H63.4091V30.7483H-6.54541V27.9103ZM-6.54541 33.5711H63.4091V36.4091H-6.54541V33.5711Z" fill="#BD3D44"/>
<path fill-rule="evenodd" clip-rule="evenodd" d="M-6.54541 2.42896H63.4091V5.25935H-6.54541V2.42896ZM-6.54541 8.08975H63.4091V10.9201H-6.54541V8.08975ZM-6.54541 13.7505H63.4091V16.5886H-6.54541V13.7505ZM-6.54541 19.419H63.4091V22.2571H-6.54541V19.419ZM-6.54541 25.0798H63.4091V27.9179H-6.54541V25.0798ZM-6.54541 30.7406H63.4091V33.5787H-6.54541V30.7406Z" fill="white"/>
<path fill-rule="evenodd" clip-rule="evenodd" d="M-6.54541 -0.409058H21.4364V19.4191H-6.54541V-0.409058Z" fill="#192F5D"/>
<path fill-rule="evenodd" clip-rule="evenodd" d="M-4.21363 0.434692L-3.95284 1.22475H-3.13977L-3.79943 1.70799L-3.5463 2.49805L-4.21363 2.00714L-4.87329 2.49037L-4.62784 1.70799L-5.29517 1.22475H-4.45909L-4.21363 0.434692ZM0.450005 0.434692L0.70313 1.22475H1.53154L0.86421 1.70799L1.10966 2.49805L0.450005 2.00714L-0.217325 2.49037L0.0358005 1.70799L-0.623859 1.22475H0.18921L0.450005 0.434692ZM5.11364 0.434692L5.36677 1.22475H6.18751L5.52785 1.70799L5.78097 2.49805L5.11364 2.00714L4.44631 2.49037L4.69944 1.70799L4.03211 1.22475H4.86052L5.11364 0.434692ZM9.77728 0.434692L10.0304 1.22475H10.8588L10.1915 1.70799L10.4446 2.49805L9.77728 2.00714L9.10995 2.49037L9.37074 1.70799L8.69574 1.22475H9.51648L9.77728 0.434692ZM14.4409 0.434692L14.694 1.22475H15.5148L14.8551 1.70799L15.1082 2.49805L14.4409 2.00714L13.7736 2.49037L14.0267 1.70799L13.3671 1.22475H14.1878L14.4409 0.434692ZM19.1046 0.434692L19.3577 1.22475H20.1861L19.5111 1.70799L19.7719 2.49805L19.1046 2.00714L18.4372 2.49037L18.698 1.70799L18.023 1.22475H18.8514L19.1046 0.434692ZM-1.88181 2.42901L-1.62869 3.2114H-0.792609L-1.45994 3.68697L-1.21448 4.47702L-1.86647 3.99378L-2.5338 4.47702L-2.29602 3.68697L-2.94034 3.2114H-2.1196L-1.88181 2.42901ZM2.78182 2.42901L3.04262 3.2114H3.86336L3.18836 3.68697L3.44915 4.47702L2.78182 3.99378L2.11449 4.47702L2.36762 3.68697L1.70029 3.2114H2.5287L2.78182 2.42901ZM7.44546 2.42901L7.69859 3.2114H8.52699L7.85967 3.68697L8.11279 4.47702L7.44546 3.99378L6.77813 4.47702L7.03126 3.68697L6.3716 3.2114H7.18466L7.44546 2.42901ZM12.1091 2.42901L12.3699 3.2114H13.1906L12.5156 3.68697L12.7764 4.47702L12.1091 3.99378L11.4494 4.47702L11.6949 3.68697L11.0276 3.2114H11.8636L12.1091 2.42901ZM16.7727 2.42901L17.0259 3.2114H17.8543L17.1869 3.68697L17.4401 4.47702L16.7727 3.99378L16.1054 4.47702L16.3585 3.68697L15.6989 3.2114H16.5196L16.7727 2.42901ZM-4.21363 4.39265L-3.95284 5.19037H-3.13977L-3.79943 5.67361L-3.5463 6.456L-4.21363 5.97276L-4.87329 6.456L-4.62784 5.67361L-5.29517 5.19037H-4.45909L-4.21363 4.39265ZM0.450005 4.39265L0.70313 5.19037H1.53154L0.86421 5.67361L1.10966 6.456L0.450005 5.97276L-0.217325 6.456L0.0358005 5.66594L-0.623859 5.1827H0.18921L0.450005 4.39265ZM5.11364 4.39265L5.36677 5.1827H6.18751L5.52785 5.66594L5.78097 6.44833L5.11364 5.96509L4.44631 6.44833L4.69944 5.65827L4.03211 5.17503H4.86052L5.11364 4.39265ZM9.77728 4.39265L10.0304 5.1827H10.8588L10.1915 5.66594L10.4446 6.44833L9.77728 5.96509L9.10995 6.44833L9.37074 5.65827L8.69574 5.17503H9.51648L9.77728 4.39265ZM14.4409 4.39265L14.694 5.1827H15.5148L14.8551 5.66594L15.1082 6.44833L14.4409 5.96509L13.7736 6.44833L14.0267 5.65827L13.3671 5.17503H14.1878L14.4409 4.39265ZM19.1046 4.39265L19.3577 5.1827H20.1861L19.5111 5.66594L19.7719 6.44833L19.1046 5.96509L18.4372 6.44833L18.698 5.65827L18.023 5.17503H18.8514L19.1046 4.39265ZM-1.88181 6.38697L-1.62869 7.16935H-0.792609L-1.45994 7.65259L-1.20681 8.44265L-1.87414 7.95174L-2.54147 8.43498L-2.28835 7.65259L-2.94801 7.16935H-2.12727L-1.88181 6.38697ZM2.78182 6.38697L3.04262 7.16935H3.86336L3.18836 7.65259L3.44915 8.44265L2.78182 7.95174L2.11449 8.43498L2.36762 7.65259L1.70029 7.16935H2.5287L2.78182 6.38697ZM7.44546 6.38697L7.69859 7.16935H8.52699L7.85967 7.65259L8.11279 8.44265L7.44546 7.95174L6.77813 8.43498L7.03126 7.65259L6.3716 7.16935H7.18466L7.44546 6.38697ZM12.1091 6.38697L12.3699 7.16935H13.1906L12.5233 7.65259L12.7764 8.44265L12.1091 7.95174L11.4494 8.43498L11.6949 7.65259L11.0276 7.16935H11.8636L12.1091 6.38697ZM16.7727 6.38697L17.0259 7.16935H17.8543L17.1869 7.65259L17.4401 8.44265L16.7727 7.95174L16.1054 8.43498L16.3585 7.65259L15.6989 7.16935H16.5196L16.7727 6.38697ZM-4.21363 8.37361L-3.95284 9.156H-3.13977L-3.79943 9.63924L-3.5463 10.4293L-4.21363 9.93839L-4.87329 10.4216L-4.62784 9.63924L-5.29517 9.156H-4.45909L-4.21363 8.37361ZM0.450005 8.37361L0.70313 9.156H1.53154L0.86421 9.63924L1.10966 10.4216L0.450005 9.93839L-0.217325 10.4216L0.0358005 9.63924L-0.623859 9.156H0.18921L0.450005 8.37361ZM5.11364 8.37361L5.36677 9.156H6.18751L5.52785 9.63924L5.78097 10.4293L5.11364 9.93839L4.44631 10.4216L4.69944 9.63924L4.03211 9.156H4.86052L5.11364 8.37361ZM9.77728 8.37361L10.0304 9.156H10.8588L10.1915 9.63924L10.4446 10.4293L9.77728 9.93839L9.10995 10.4216L9.37074 9.63924L8.69574 9.156H9.51648L9.77728 8.37361ZM14.4409 8.37361L14.694 9.156H15.5148L14.8551 9.63924L15.1082 10.4293L14.4409 9.93839L13.7736 10.4216L14.0267 9.63924L13.3671 9.156H14.1878L14.4409 8.37361ZM19.1046 8.37361L19.3577 9.156H20.1861L19.5111 9.63924L19.7719 10.4293L19.1046 9.93839L18.4372 10.4216L18.6903 9.63924L18.0153 9.156H18.8438L19.1046 8.37361ZM-1.88181 10.3526L-1.62869 11.1426H-0.792609L-1.45994 11.6182L-1.20681 12.4083L-1.87414 11.9174L-2.54147 12.4083L-2.28835 11.6182L-2.94801 11.135H-2.12727L-1.88181 10.3526ZM2.78182 10.3526L3.04262 11.1426H3.86336L3.18836 11.6182L3.44915 12.4083L2.78182 11.9174L2.11449 12.4083L2.36762 11.6182L1.70029 11.135H2.5287L2.78182 10.3526ZM7.44546 10.3526L7.69859 11.1426H8.52699L7.85967 11.6182L8.11279 12.4083L7.44546 11.9174L6.77813 12.4083L7.03126 11.6182L6.3716 11.135H7.18466L7.44546 10.3526ZM12.1091 10.3526L12.3699 11.1426H13.1906L12.5233 11.6182L12.7764 12.4083L12.1091 11.9174L11.4494 12.4083L11.6949 11.6182L11.0276 11.135H11.8636L12.1091 10.3526ZM16.7727 10.3526L17.0259 11.1426H17.8543L17.1869 11.6182L17.4401 12.4083L16.7727 11.9174L16.1054 12.4083L16.3585 11.6182L15.6989 11.135H16.5196L16.7727 10.3526ZM-4.21363 12.3316L-3.95284 13.1216H-3.13977L-3.79943 13.6049L-3.5463 14.3796L-4.21363 13.904L-4.87329 14.3796L-4.62784 13.5972L-5.29517 13.114H-4.45909L-4.21363 12.3316ZM0.450005 12.3316L0.70313 13.1216H1.53154L0.86421 13.6049L1.11734 14.3796L0.450005 13.904L-0.217325 14.3796L0.0434714 13.5972L-0.623859 13.114H0.18921L0.450005 12.3316ZM5.11364 12.3316L5.36677 13.1216H6.18751L5.52785 13.6049L5.78097 14.3796L5.11364 13.904L4.44631 14.3796L4.69944 13.5972L4.03211 13.114H4.86052L5.11364 12.3316ZM9.77728 12.3316L10.0304 13.1216H10.8588L10.1915 13.6049L10.4446 14.3796L9.77728 13.904L9.10995 14.3796L9.37074 13.5972L8.69574 13.114H9.51648L9.77728 12.3316ZM14.4409 12.3316L14.694 13.1216H15.5148L14.8551 13.6049L15.1082 14.3796L14.4409 13.904L13.7736 14.3796L14.0267 13.5972L13.3671 13.114H14.1878L14.4409 12.3316ZM19.1046 12.3316L19.3577 13.1216H20.1861L19.5111 13.6049L19.7719 14.3796L19.1046 13.904L18.4372 14.3796L18.698 13.5972L18.023 13.114H18.8514L19.1046 12.3316ZM-1.88181 14.3182L-1.62869 15.1006H-0.792609L-1.45994 15.5838L-1.20681 16.3739L-1.87414 15.883L-2.54147 16.3662L-2.28835 15.5838L-2.94801 15.1006H-2.12727L-1.88181 14.3182ZM2.78182 14.3182L3.04262 15.1006H3.86336L3.18836 15.5838L3.44915 16.3739L2.78182 15.883L2.11449 16.3662L2.36762 15.5838L1.70029 15.1006H2.5287L2.78182 14.3182ZM7.44546 14.3182L7.69859 15.1006H8.52699L7.85967 15.5838L8.11279 16.3739L7.44546 15.883L6.77813 16.3662L7.03126 15.5838L6.3716 15.1006H7.18466L7.44546 14.3182ZM12.1091 14.3182L12.3699 15.1006H13.1906L12.5233 15.5838L12.7764 16.3739L12.1091 15.883L11.4494 16.3662L11.6949 15.5838L11.0276 15.1006H11.8636L12.1091 14.3182ZM16.7727 14.3182L17.0259 15.1006H17.8543L17.1869 15.5838L17.4401 16.3739L16.7727 15.883L16.1054 16.3662L16.3585 15.5838L15.6989 15.1006H16.5196L16.7727 14.3182ZM-4.21363 16.3049L-3.95284 17.0873H-3.13977L-3.79943 17.5705L-3.5463 18.3529L-4.21363 17.8696L-4.87329 18.3529L-4.62784 17.5628L-5.29517 17.0796H-4.45909L-4.21363 16.3049ZM0.450005 16.3049L0.70313 17.0873H1.53154L0.86421 17.5705L1.11734 18.3529L0.450005 17.8696L-0.217325 18.3529L0.0434714 17.5628L-0.623859 17.0796H0.18921L0.450005 16.3049ZM5.11364 16.3049L5.36677 17.0873H6.18751L5.54319 17.5705L5.79631 18.3529L5.12898 17.8696L4.46165 18.3529L4.71478 17.5628L4.04745 17.0796H4.87586L5.11364 16.3049ZM9.77728 16.3049L10.0304 17.0873H10.8588L10.1915 17.5705L10.4446 18.3529L9.77728 17.8696L9.10995 18.3529L9.37074 17.5628L8.69574 17.0796H9.51648L9.77728 16.3049ZM14.4409 16.3049L14.694 17.0873H15.5148L14.8551 17.5705L15.1082 18.3529L14.4409 17.8696L13.7736 18.3529L14.0267 17.5628L13.3671 17.0796H14.1878L14.4409 16.3049ZM19.1046 16.3049L19.3577 17.0873H20.1861L19.5111 17.5705L19.7719 18.3529L19.1046 17.8696L18.4372 18.3529L18.698 17.5628L18.023 17.0796H18.8514L19.1046 16.3049Z" fill="white"/>
</g>
</g>
<defs>
<clipPath id="clip0_151_1393">
<rect width="36" height="36" rx="18" fill="white"/>
</clipPath>
<clipPath id="clip1_151_1393">
<rect width="49.0909" height="36.8182" fill="white" transform="translate(-6.54541 -0.409058)"/>
</clipPath>
</defs>
</svg>
