<svg width="123" height="123" viewBox="0 0 123 123" fill="none" xmlns="http://www.w3.org/2000/svg">
<path d="M105.997 98.5809L110.7 50.6471C110.881 48.6574 110.157 46.6677 108.891 45.2206C107.625 43.7735 105.635 42.8691 103.646 42.8691V30.3883C103.646 25.6853 100.028 21.8868 95.325 21.7059L19.1735 20.6206C14.2897 20.6206 10.672 24.4191 10.4912 28.9412V32.1971C8.32058 32.7397 6.69264 34.1868 5.78822 36.3574C4.70293 37.6235 3.9794 39.2515 3.61764 40.5177C2.71322 43.7735 2.89411 47.2103 3.25587 50.6471C4.70293 66.5647 6.14999 82.3015 7.41617 98.2191C7.95881 105.093 9.76764 107.987 19.7162 108.529C48.1147 109.976 76.5132 109.796 104.912 109.253C105.997 109.253 107.263 109.253 108.168 108.71C109.253 108.168 109.976 107.082 109.796 105.997C109.253 103.646 105.274 104.007 102.922 103.826C104.55 102.741 105.635 100.932 105.997 98.5809ZM19.1735 23.5147L95.325 24.6C98.4 24.6 101.113 27.3133 100.932 30.3883V43.05H74.3426C72.3529 43.05 70.3632 42.1456 68.9162 40.6985L64.7559 35.9956C62.5853 33.6441 59.5103 32.1971 56.2544 32.1971H13.2044V29.303C13.2044 25.8662 15.9176 23.3338 19.1735 23.5147ZM98.9426 102.379H17.3647C15.1941 102.379 13.2044 100.751 13.0235 98.4L7.77793 39.4324C7.59705 36.9 9.58675 34.7294 12.1191 34.7294H56.2544C58.7868 34.7294 61.1382 35.8147 62.7662 37.6235L66.9265 42.3265C68.7353 44.4971 71.4485 45.7633 74.3426 45.7633H103.646C104.912 45.7633 105.997 46.3059 106.901 47.2103C107.806 48.1147 108.168 49.3809 107.987 50.4662L103.284 98.4C103.103 100.571 101.113 102.379 98.9426 102.379Z" fill="#797BA4"/>
<path d="M104.55 13.7471C102.922 15.9176 101.656 18.0882 100.751 20.6206C100.571 21.3441 100.932 22.0676 101.656 22.2485C102.379 22.4294 103.103 22.0676 103.284 21.3441C104.007 19.1735 105.093 17.0029 106.54 15.1941C107.082 14.6515 106.901 13.7471 106.359 13.2044C105.816 13.2044 105.093 13.2044 104.55 13.7471ZM116.126 18.9926C115.765 18.45 114.86 18.0882 114.318 18.6309L105.816 24.0573C105.274 24.4191 105.093 25.3235 105.454 25.8662C105.816 26.4088 106.721 26.7706 107.263 26.2279L115.765 20.8015C116.307 20.4397 116.488 19.5353 116.126 18.9926ZM118.659 28.7603L109.072 29.4838C108.349 29.4838 107.806 30.2073 107.806 30.9309C107.806 31.6544 108.529 32.1971 109.253 32.1971L118.84 31.4735C119.563 31.4735 120.106 30.75 120.106 30.0265C119.925 29.3029 119.382 28.7603 118.659 28.7603Z" fill="#797BA4"/>
</svg>
