<svg width="33" height="34" viewBox="0 0 33 34" fill="none" xmlns="http://www.w3.org/2000/svg">
<path fill-rule="evenodd" clip-rule="evenodd" d="M27.5499 17.2761C27.5499 16.4146 27.474 15.5862 27.3331 14.7909H16.1019V19.4908H22.5197C22.2433 21.0095 21.4031 22.2963 20.1402 23.1578V26.2064H23.9941C26.249 24.0912 27.5499 20.9764 27.5499 17.2761Z" fill="#4285F4"/>
<path fill-rule="evenodd" clip-rule="evenodd" d="M16.102 29.15C19.3218 29.15 22.0212 28.062 23.9942 26.2064L20.1403 23.1578C19.0725 23.8868 17.7065 24.3176 16.102 24.3176C12.9961 24.3176 10.3672 22.1803 9.42947 19.3085H5.44543V22.4564C7.40764 26.4273 11.4405 29.15 16.102 29.15Z" fill="#34A853"/>
<path fill-rule="evenodd" clip-rule="evenodd" d="M9.4293 19.3085C9.1908 18.5795 9.05529 17.8008 9.05529 17C9.05529 16.1992 9.1908 15.4205 9.4293 14.6915V11.5436H5.44527C4.63762 13.1838 4.17688 15.0394 4.17688 17C4.17688 18.9606 4.63762 20.8162 5.44527 22.4565L9.4293 19.3085Z" fill="#FBBC05"/>
<path fill-rule="evenodd" clip-rule="evenodd" d="M16.102 9.68238C17.8529 9.68238 19.4248 10.2954 20.6607 11.4994L24.081 8.01452C22.0158 6.05395 19.3164 4.85 16.102 4.85C11.4405 4.85 7.40764 7.5727 5.44543 11.5435L9.42947 14.6915C10.3672 11.8197 12.9961 9.68238 16.102 9.68238Z" fill="#EA4335"/>
</svg>
