<svg width="255" height="37" viewBox="0 0 255 37" fill="none" xmlns="http://www.w3.org/2000/svg">
<path d="M13.8544 36.336C9.91844 36.336 6.68644 35.408 4.15844 33.552C1.63044 31.664 0.270438 28.976 0.0784375 25.488H10.1104C10.2064 26.672 10.5584 27.536 11.1664 28.08C11.7744 28.624 12.5584 28.896 13.5184 28.896C14.3824 28.896 15.0864 28.688 15.6304 28.272C16.2064 27.824 16.4944 27.216 16.4944 26.448C16.4944 25.456 16.0304 24.688 15.1024 24.144C14.1744 23.6 12.6704 22.992 10.5904 22.32C8.38244 21.584 6.59044 20.88 5.21444 20.208C3.87044 19.504 2.68644 18.496 1.66244 17.184C0.670438 15.84 0.174438 14.096 0.174438 11.952C0.174438 9.776 0.718438 7.92 1.80644 6.384C2.89444 4.816 4.39844 3.632 6.31844 2.832C8.23844 2.032 10.4144 1.632 12.8464 1.632C16.7824 1.632 19.9184 2.56 22.2544 4.416C24.6224 6.24 25.8864 8.816 26.0464 12.144H15.8224C15.7904 11.12 15.4704 10.352 14.8624 9.84C14.2864 9.328 13.5344 9.072 12.6064 9.072C11.9024 9.072 11.3264 9.28 10.8784 9.696C10.4304 10.112 10.2064 10.704 10.2064 11.472C10.2064 12.112 10.4464 12.672 10.9264 13.152C11.4384 13.6 12.0624 14 12.7984 14.352C13.5344 14.672 14.6224 15.088 16.0624 15.6C18.2064 16.336 19.9664 17.072 21.3424 17.808C22.7504 18.512 23.9504 19.52 24.9424 20.832C25.9664 22.112 26.4784 23.744 26.4784 25.728C26.4784 27.744 25.9664 29.552 24.9424 31.152C23.9504 32.752 22.4944 34.016 20.5744 34.944C18.6864 35.872 16.4464 36.336 13.8544 36.336ZM57.0801 22.224C57.0801 22.96 57.0321 23.696 56.9361 24.432H39.1281C39.2241 25.904 39.6241 27.008 40.3281 27.744C41.0641 28.448 41.9921 28.8 43.1121 28.8C44.6801 28.8 45.8001 28.096 46.4721 26.688H56.5041C56.0881 28.544 55.2721 30.208 54.0561 31.68C52.8721 33.12 51.3681 34.256 49.5441 35.088C47.7201 35.92 45.7041 36.336 43.4961 36.336C40.8401 36.336 38.4721 35.776 36.3921 34.656C34.3441 33.536 32.7281 31.936 31.5441 29.856C30.3921 27.776 29.8161 25.328 29.8161 22.512C29.8161 19.696 30.3921 17.264 31.5441 15.216C32.6961 13.136 34.2961 11.536 36.3441 10.416C38.4241 9.296 40.8081 8.736 43.4961 8.736C46.1521 8.736 48.5041 9.28 50.5521 10.368C52.6001 11.456 54.2001 13.024 55.3521 15.072C56.5041 17.088 57.0801 19.472 57.0801 22.224ZM47.4801 19.872C47.4801 18.72 47.0961 17.824 46.3281 17.184C45.5601 16.512 44.6001 16.176 43.4481 16.176C42.2961 16.176 41.3521 16.496 40.6161 17.136C39.8801 17.744 39.4001 18.656 39.1761 19.872H47.4801ZM70.8382 12.816C71.5742 11.536 72.6142 10.544 73.9582 9.84C75.3022 9.104 76.8862 8.736 78.7102 8.736C80.8542 8.736 82.7902 9.296 84.5182 10.416C86.2782 11.536 87.6542 13.136 88.6462 15.216C89.6702 17.296 90.1822 19.728 90.1822 22.512C90.1822 25.296 89.6702 27.744 88.6462 29.856C87.6542 31.936 86.2782 33.536 84.5182 34.656C82.7902 35.776 80.8542 36.336 78.7102 36.336C76.8862 36.336 75.3022 35.984 73.9582 35.28C72.6142 34.544 71.5742 33.536 70.8382 32.256V36H61.4302V0.48H70.8382V12.816ZM80.6302 22.512C80.6302 20.752 80.1502 19.392 79.1902 18.432C78.2622 17.44 77.1102 16.944 75.7342 16.944C74.3582 16.944 73.1902 17.44 72.2302 18.432C71.3022 19.424 70.8382 20.784 70.8382 22.512C70.8382 24.272 71.3022 25.648 72.2302 26.64C73.1902 27.632 74.3582 28.128 75.7342 28.128C77.1102 28.128 78.2622 27.632 79.1902 26.64C80.1502 25.616 80.6302 24.24 80.6302 22.512ZM120.283 22.224C120.283 22.96 120.235 23.696 120.139 24.432H102.331C102.427 25.904 102.827 27.008 103.531 27.744C104.267 28.448 105.195 28.8 106.315 28.8C107.883 28.8 109.003 28.096 109.675 26.688H119.707C119.291 28.544 118.475 30.208 117.259 31.68C116.075 33.12 114.571 34.256 112.747 35.088C110.923 35.92 108.907 36.336 106.699 36.336C104.043 36.336 101.675 35.776 99.5952 34.656C97.5472 33.536 95.9312 31.936 94.7472 29.856C93.5952 27.776 93.0192 25.328 93.0192 22.512C93.0192 19.696 93.5952 17.264 94.7472 15.216C95.8992 13.136 97.4992 11.536 99.5472 10.416C101.627 9.296 104.011 8.736 106.699 8.736C109.355 8.736 111.707 9.28 113.755 10.368C115.803 11.456 117.403 13.024 118.555 15.072C119.707 17.088 120.283 19.472 120.283 22.224ZM110.683 19.872C110.683 18.72 110.299 17.824 109.531 17.184C108.763 16.512 107.803 16.176 106.651 16.176C105.499 16.176 104.555 16.496 103.819 17.136C103.083 17.744 102.603 18.656 102.379 19.872H110.683ZM141.481 36L134.041 24.96V36H124.633V0.48H134.041V19.632L141.481 9.072H152.761L142.153 22.608L152.953 36H141.481ZM189.139 2.16L177.475 36H165.427L153.715 2.16H163.795L171.475 26.592L179.107 2.16H189.139ZM219.307 13.44C219.307 15.488 218.827 17.36 217.867 19.056C216.939 20.72 215.515 22.064 213.595 23.088C211.707 24.08 209.387 24.576 206.635 24.576H201.979V36H192.571V2.16H206.635C209.355 2.16 211.659 2.64 213.547 3.6C215.467 4.56 216.907 5.888 217.867 7.584C218.827 9.28 219.307 11.232 219.307 13.44ZM205.723 17.088C208.379 17.088 209.707 15.872 209.707 13.44C209.707 10.976 208.379 9.744 205.723 9.744H201.979V17.088H205.723ZM254.93 36H245.522L232.994 17.088V36H223.586V2.16H232.994L245.522 21.312V2.16H254.93V36Z" fill="#A0FFD7"/>
<path d="M4.15844 33.552L0.568181 38.3593L0.587832 38.374L0.607602 38.3885L4.15844 33.552ZM0.0784376 25.488V19.488H-6.26092L-5.91249 25.8178L0.0784376 25.488ZM10.1104 25.488L16.0908 25.0031L15.6436 19.488H10.1104V25.488ZM11.1664 28.08L7.16567 32.5514L7.16567 32.5514L11.1664 28.08ZM15.6304 28.272L19.2751 33.0381L19.2947 33.0232L19.3141 33.0081L15.6304 28.272ZM15.1024 24.144L18.1368 18.9678H18.1368L15.1024 24.144ZM10.5904 22.32L8.69307 28.0121L8.71942 28.0209L8.74585 28.0294L10.5904 22.32ZM5.21444 20.208L2.4304 25.523L2.50537 25.5623L2.58143 25.5994L5.21444 20.208ZM1.66244 17.184L-3.16501 20.7471L-3.1171 20.812L-3.06746 20.8756L1.66244 17.184ZM1.80644 6.384L6.70259 9.8521L6.71939 9.82837L6.73596 9.80449L1.80644 6.384ZM6.31844 2.832L4.01075 -2.70646L4.01074 -2.70646L6.31844 2.832ZM22.2544 4.416L18.522 9.11374L18.5573 9.14181L18.5931 9.16935L22.2544 4.416ZM26.0464 12.144V18.144H32.3418L32.0395 11.8559L26.0464 12.144ZM15.8224 12.144L9.82537 12.3314L10.007 18.144H15.8224V12.144ZM14.8624 9.84L10.8763 14.3245L10.9362 14.3778L10.9976 14.4295L14.8624 9.84ZM10.8784 9.696L14.9611 14.0928L14.9611 14.0928L10.8784 9.696ZM10.9264 13.152L6.68379 17.3946L6.82506 17.5359L6.97541 17.6675L10.9264 13.152ZM12.7984 14.352L10.2097 19.7648L10.3071 19.8114L10.4061 19.8544L12.7984 14.352ZM16.0624 15.6L14.0524 21.2533L14.0833 21.2643L14.1143 21.2749L16.0624 15.6ZM21.3424 17.808L18.5125 23.0987L18.5853 23.1376L18.6592 23.1746L21.3424 17.808ZM24.9424 20.832L20.1565 24.4506L20.206 24.5161L20.2572 24.5802L24.9424 20.832ZM24.9424 31.152L19.8888 27.9177L19.8657 27.9539L19.843 27.9904L24.9424 31.152ZM20.5744 34.944L17.9634 29.5419L17.9455 29.5505L17.9277 29.5593L20.5744 34.944ZM13.8544 30.336C10.8663 30.336 8.97058 29.6415 7.70927 28.7155L0.607602 38.3885C4.4023 41.1745 8.97054 42.336 13.8544 42.336V30.336ZM7.74869 28.7447C6.80831 28.0424 6.17552 27.0866 6.06937 25.1582L-5.91249 25.8178C-5.63464 30.8654 -3.54743 35.2856 0.568181 38.3593L7.74869 28.7447ZM0.0784376 31.488H10.1104V19.488H0.0784376V31.488ZM4.13006 25.9729C4.29414 27.9965 4.9803 30.5961 7.16567 32.5514L15.1672 23.6086C16.1366 24.4759 16.1187 25.3475 16.0908 25.0031L4.13006 25.9729ZM7.16567 32.5514C9.06363 34.2496 11.3585 34.896 13.5184 34.896V22.896C13.6048 22.896 13.8461 22.9086 14.1771 23.0235C14.5225 23.1433 14.8688 23.3415 15.1672 23.6086L7.16567 32.5514ZM13.5184 34.896C15.3502 34.896 17.4373 34.4436 19.2751 33.0381L11.9857 23.5059C12.7356 22.9324 13.4146 22.896 13.5184 22.896V34.896ZM19.3141 33.0081C21.4384 31.3559 22.4944 28.9548 22.4944 26.448H10.4944C10.4944 26.0695 10.5693 25.5168 10.856 24.9115C11.1473 24.2965 11.5576 23.8386 11.9468 23.5359L19.3141 33.0081ZM22.4944 26.448C22.4944 23.1171 20.7136 20.4784 18.1368 18.9678L12.0681 29.3202C11.8407 29.1869 11.3892 28.8568 11.0109 28.2307C10.6189 27.5818 10.4944 26.9268 10.4944 26.448H22.4944ZM18.1368 18.9678C16.6185 18.0778 14.5967 17.309 12.435 16.6106L8.74585 28.0294C10.7442 28.675 11.7303 29.1222 12.0681 29.3202L18.1368 18.9678ZM12.4878 16.6279C10.4165 15.9375 8.89668 15.329 7.84745 14.8166L2.58143 25.5994C4.28419 26.431 6.34837 27.2305 8.69307 28.0121L12.4878 16.6279ZM7.99848 14.893C7.48201 14.6225 6.94215 14.1968 6.39233 13.4924L-3.06746 20.8756C-1.56927 22.7952 0.258862 24.3855 2.4304 25.523L7.99848 14.893ZM6.48988 13.6209C6.45099 13.5682 6.17444 13.1786 6.17444 11.952H-5.82556C-5.82556 15.0134 -5.11011 18.1118 -3.16501 20.7471L6.48988 13.6209ZM6.17444 11.952C6.17444 10.8181 6.44044 10.2222 6.70259 9.8521L-3.08971 2.9159C-5.00357 5.61782 -5.82556 8.73389 -5.82556 11.952H6.17444ZM6.73596 9.80449C7.11183 9.2628 7.66559 8.77068 8.62613 8.37046L4.01074 -2.70646C1.13128 -1.50669 -1.32295 0.369196 -3.12309 2.96351L6.73596 9.80449ZM8.62613 8.37046C9.702 7.92218 11.0743 7.632 12.8464 7.632V-4.368C9.75453 -4.368 6.77487 -3.85818 4.01075 -2.70646L8.62613 8.37046ZM12.8464 7.632C15.8613 7.632 17.5436 8.33643 18.522 9.11374L25.9869 -0.281746C22.2932 -3.21644 17.7036 -4.368 12.8464 -4.368V7.632ZM18.5931 9.16935C19.3961 9.78787 19.967 10.6358 20.0534 12.4321L32.0395 11.8559C31.8059 6.99621 29.8488 2.69212 25.9158 -0.337357L18.5931 9.16935ZM26.0464 6.144H15.8224V18.144H26.0464V6.144ZM21.8195 11.9566C21.7506 9.75261 20.9922 7.15784 18.7272 5.25053L10.9976 14.4295C10.5353 14.0402 10.2102 13.5643 10.02 13.1077C9.84303 12.683 9.82705 12.3852 9.82537 12.3314L21.8195 11.9566ZM18.8486 5.35555C16.9596 3.67642 14.6888 3.072 12.6064 3.072V15.072C12.5209 15.072 12.2742 15.0601 11.9329 14.9439C11.5756 14.8223 11.2045 14.6162 10.8763 14.3245L18.8486 5.35555ZM12.6064 3.072C10.6339 3.072 8.52151 3.69672 6.79573 5.29924L14.9611 14.0928C14.5932 14.4344 14.1534 14.7019 13.6843 14.8713C13.229 15.0357 12.8469 15.072 12.6064 15.072V3.072ZM6.79573 5.29924C4.82676 7.12757 4.20644 9.49174 4.20644 11.472H16.2064C16.2064 11.6632 16.1792 12.0653 15.9862 12.5754C15.7826 13.1134 15.4396 13.6485 14.9611 14.0928L6.79573 5.29924ZM4.20644 11.472C4.20644 13.8073 5.15433 15.8652 6.68379 17.3946L15.1691 8.90936C15.4073 9.14758 15.6882 9.51111 15.9013 10.0085C16.1174 10.5128 16.2064 11.0212 16.2064 11.472H4.20644ZM6.97541 17.6675C7.97064 18.5383 9.0755 19.2224 10.2097 19.7648L15.3872 8.93919C15.0494 8.77764 14.9062 8.66171 14.8775 8.63654L6.97541 17.6675ZM10.4061 19.8544C11.3339 20.2578 12.5763 20.7284 14.0524 21.2533L18.0725 9.94671C16.6686 9.44755 15.735 9.08619 15.1908 8.84958L10.4061 19.8544ZM14.1143 21.2749C16.0776 21.9489 17.515 22.5652 18.5125 23.0987L24.1724 12.5173C22.4178 11.5788 20.3353 10.7231 18.0105 9.92507L14.1143 21.2749ZM18.6592 23.1746C19.2038 23.4469 19.6958 23.8413 20.1565 24.4506L29.7284 17.2133C28.2051 15.1987 26.2971 13.5771 24.0257 12.4414L18.6592 23.1746ZM20.2572 24.5802C20.2618 24.5859 20.4784 24.8101 20.4784 25.728H32.4784C32.4784 22.6779 31.671 19.6381 29.6277 17.0838L20.2572 24.5802ZM20.4784 25.728C20.4784 26.6712 20.2564 27.3434 19.8888 27.9177L29.9961 34.3863C31.6765 31.7606 32.4784 28.8168 32.4784 25.728H20.4784ZM19.843 27.9904C19.528 28.4985 18.998 29.0418 17.9634 29.5419L23.1854 40.3461C25.9908 38.9902 28.3729 37.0055 30.0419 34.3136L19.843 27.9904ZM17.9277 29.5593C17.0322 29.9995 15.7376 30.336 13.8544 30.336V42.336C17.1553 42.336 20.3407 41.7445 23.2212 40.3287L17.9277 29.5593ZM56.9361 24.432V30.432H62.2043L62.8857 25.208L56.9361 24.432ZM39.1281 24.432V18.432H32.724L33.1408 24.8225L39.1281 24.432ZM40.3281 27.744L35.9922 31.8913L36.0844 31.9877L36.1807 32.0798L40.3281 27.744ZM46.4721 26.688V20.688H42.6874L41.0572 24.1036L46.4721 26.688ZM56.5041 26.688L62.3588 28.0003L63.9978 20.688H56.5041V26.688ZM54.0561 31.68L49.4303 27.8587L49.4215 27.8694L54.0561 31.68ZM49.5441 35.088L52.0341 40.5469L49.5441 35.088ZM36.3921 34.656L33.5132 39.9202L33.5303 39.9296L33.5475 39.9388L36.3921 34.656ZM31.5441 29.856L26.2953 32.763L26.3123 32.7937L26.3297 32.8242L31.5441 29.856ZM31.5441 15.216L36.7735 18.1576L36.7832 18.1403L36.7928 18.123L31.5441 15.216ZM36.3441 10.416L33.4995 5.13317L33.4823 5.14241L33.4652 5.15177L36.3441 10.416ZM50.5521 10.368L53.367 5.06931L53.367 5.0693L50.5521 10.368ZM55.3521 15.072L50.1226 18.0136L50.1325 18.0312L50.1426 18.0488L55.3521 15.072ZM47.4801 19.872V25.872H53.4801V19.872H47.4801ZM46.3281 17.184L42.377 21.6995L42.4314 21.7471L42.487 21.7933L46.3281 17.184ZM40.6161 17.136L44.4374 21.7618L44.4959 21.7134L44.5531 21.6636L40.6161 17.136ZM39.1761 19.872L33.2753 18.785L31.9698 25.872H39.1761V19.872ZM51.0801 22.224C51.0801 22.6983 51.0492 23.1751 50.9865 23.656L62.8857 25.208C63.0149 24.2169 63.0801 23.2217 63.0801 22.224H51.0801ZM56.9361 18.432H39.1281V30.432H56.9361V18.432ZM33.1408 24.8225C33.2884 27.0854 33.9578 29.7644 35.9922 31.8913L44.6639 23.5967C44.9701 23.9168 45.1002 24.207 45.1412 24.3201C45.1759 24.4159 45.1355 24.3504 45.1153 24.0415L33.1408 24.8225ZM36.1807 32.0798C38.1491 33.9627 40.615 34.8 43.1121 34.8V22.8C43.1865 22.8 43.4066 22.8132 43.704 22.926C44.0116 23.0427 44.278 23.2193 44.4754 23.4081L36.1807 32.0798ZM43.1121 34.8C44.8138 34.8 46.6397 34.4087 48.3211 33.3518C50.0043 32.2938 51.1506 30.8151 51.887 29.2724L41.0572 24.1036C41.1215 23.9689 41.3718 23.5462 41.935 23.1922C42.4964 22.8393 42.9783 22.8 43.1121 22.8V34.8ZM46.4721 32.688H56.5041V20.688H46.4721V32.688ZM50.6493 25.3757C50.4407 26.3067 50.0473 27.1118 49.4303 27.8587L58.6818 35.5013C60.4968 33.3042 61.7355 30.7813 62.3588 28.0003L50.6493 25.3757ZM49.4215 27.8694C48.8606 28.5515 48.111 29.147 47.054 29.6291L52.0341 40.5469C54.6252 39.365 56.8835 37.6885 58.6906 35.4906L49.4215 27.8694ZM47.054 29.6291C46.0879 30.0698 44.9328 30.336 43.4961 30.336V42.336C46.4754 42.336 49.3522 41.7702 52.0341 40.5469L47.054 29.6291ZM43.4961 30.336C41.7077 30.336 40.3384 29.9664 39.2367 29.3732L33.5475 39.9388C36.6057 41.5856 39.9724 42.336 43.4961 42.336V30.336ZM39.2709 29.3918C38.225 28.8198 37.4066 28.0265 36.7584 26.8878L26.3297 32.8242C28.0495 35.8455 30.4631 38.2522 33.5132 39.9202L39.2709 29.3918ZM36.7928 26.949C36.2172 25.9096 35.8161 24.4987 35.8161 22.512H23.8161C23.8161 26.1572 24.567 29.6424 26.2953 32.763L36.7928 26.949ZM35.8161 22.512C35.8161 20.5221 36.2182 19.1448 36.7735 18.1576L26.3146 12.2744C24.5659 15.3832 23.8161 18.8699 23.8161 22.512H35.8161ZM36.7928 18.123C37.4049 17.0178 38.1917 16.2442 39.2229 15.6802L33.4652 5.15177C30.4004 6.82781 27.9872 9.25422 26.2953 12.309L36.7928 18.123ZM39.1887 15.6988C40.2801 15.1111 41.6626 14.736 43.4961 14.736V2.736C39.9535 2.736 36.568 3.4809 33.4995 5.13317L39.1887 15.6988ZM43.4961 14.736C45.3143 14.736 46.6746 15.1022 47.7371 15.6667L53.367 5.0693C50.3335 3.45776 46.9898 2.736 43.4961 2.736V14.736ZM47.7371 15.6667C48.7572 16.2086 49.5255 16.952 50.1226 18.0136L60.5815 12.1304C58.8746 9.09597 56.4429 6.70337 53.367 5.06931L47.7371 15.6667ZM50.1426 18.0488C50.6881 19.0034 51.0801 20.322 51.0801 22.224H63.0801C63.0801 18.622 62.3201 15.1726 60.5615 12.0952L50.1426 18.0488ZM53.4801 19.872C53.4801 17.2424 52.522 14.5354 50.1692 12.5747L42.487 21.7933C42.1629 21.5233 41.8679 21.1444 41.6772 20.6995C41.4964 20.2777 41.4801 19.9631 41.4801 19.872H53.4801ZM50.2791 12.6685C48.2755 10.9154 45.8532 10.176 43.4481 10.176V22.176C43.4375 22.176 43.2854 22.1736 43.05 22.0911C42.8039 22.005 42.568 21.8666 42.377 21.6995L50.2791 12.6685ZM43.4481 10.176C41.1252 10.176 38.6986 10.8522 36.679 12.6084L44.5531 21.6636C44.3192 21.867 44.0527 22.0135 43.8023 22.0984C43.5657 22.1786 43.4271 22.176 43.4481 22.176V10.176ZM36.7948 12.5102C34.684 14.254 33.6782 16.5984 33.2753 18.785L45.0768 20.959C45.1002 20.8317 45.1055 20.8959 45.0136 21.0705C44.9133 21.2609 44.7291 21.5208 44.4374 21.7618L36.7948 12.5102ZM39.1761 25.872H47.4801V13.872H39.1761V25.872ZM70.8382 12.816H64.8382V35.2876L76.0396 15.8068L70.8382 12.816ZM73.9582 9.84L76.7422 15.155L76.7914 15.1292L76.8401 15.1026L73.9582 9.84ZM84.5182 10.416L81.2548 15.4509L81.2758 15.4645L81.2969 15.478L84.5182 10.416ZM88.6462 15.216L83.2306 17.7988L83.2467 17.8326L83.2632 17.8661L88.6462 15.216ZM88.6462 29.856L83.2473 27.2384L83.2389 27.2557L83.2306 27.2732L88.6462 29.856ZM84.5182 34.656L81.2969 29.594L81.2758 29.6075L81.2548 29.6211L84.5182 34.656ZM73.9582 35.28L71.0763 40.5426L71.125 40.5692L71.1741 40.595L73.9582 35.28ZM70.8382 32.256L76.0396 29.2652L64.8382 9.78441V32.256H70.8382ZM70.8382 36V42H76.8382V36H70.8382ZM61.4302 36H55.4302V42H61.4302V36ZM61.4302 0.48V-5.52H55.4302V0.48H61.4302ZM70.8382 0.48H76.8382V-5.52H70.8382V0.48ZM79.1902 18.432L74.8086 22.5309L74.8769 22.604L74.9475 22.6746L79.1902 18.432ZM72.2302 18.432L67.9186 14.2595L67.8833 14.296L67.8486 14.3331L72.2302 18.432ZM72.2302 26.64L67.8486 30.7389L67.8833 30.776L67.9186 30.8125L72.2302 26.64ZM79.1902 26.64L74.813 22.5364L74.8086 22.5411L79.1902 26.64ZM76.0396 15.8068C76.1908 15.5439 76.3791 15.3452 76.7422 15.155L71.1741 4.52501C68.8492 5.74282 66.9576 7.52805 65.6367 9.82517L76.0396 15.8068ZM76.8401 15.1026C77.1466 14.9347 77.7019 14.736 78.7102 14.736V2.736C76.0704 2.736 73.4578 3.27326 71.0763 4.57742L76.8401 15.1026ZM78.7102 14.736C79.7463 14.736 80.54 14.9876 81.2548 15.4509L87.7816 5.38108C85.0404 3.60438 81.9621 2.736 78.7102 2.736V14.736ZM81.2969 15.478C82.0097 15.9316 82.6706 16.6248 83.2306 17.7988L94.0618 12.6332C92.6377 9.64721 90.5466 7.14043 87.7394 5.35403L81.2969 15.478ZM83.2632 17.8661C83.8077 18.9723 84.1822 20.4645 84.1822 22.512H96.1822C96.1822 18.9915 95.5326 15.6197 94.0292 12.5659L83.2632 17.8661ZM84.1822 22.512C84.1822 24.5565 83.8087 26.0805 83.2473 27.2384L94.0451 32.4736C95.5317 29.4075 96.1822 26.0355 96.1822 22.512H84.1822ZM83.2306 27.2732C82.6706 28.4472 82.0097 29.1404 81.2969 29.594L87.7394 39.718C90.5466 37.9316 92.6377 35.4248 94.0618 32.4388L83.2306 27.2732ZM81.2548 29.6211C80.54 30.0844 79.7463 30.336 78.7102 30.336V42.336C81.9621 42.336 85.0404 41.4676 87.7816 39.6909L81.2548 29.6211ZM78.7102 30.336C77.6613 30.336 77.0699 30.1367 76.7422 29.965L71.1741 40.595C73.5344 41.8313 76.1111 42.336 78.7102 42.336V30.336ZM76.8401 30.0174C76.425 29.7901 76.2045 29.5519 76.0396 29.2652L65.6367 35.2468C66.9439 37.5201 68.8034 39.2979 71.0763 40.5426L76.8401 30.0174ZM64.8382 32.256V36H76.8382V32.256H64.8382ZM70.8382 30H61.4302V42H70.8382V30ZM67.4302 36V0.48H55.4302V36H67.4302ZM61.4302 6.48H70.8382V-5.52H61.4302V6.48ZM64.8382 0.48V12.816H76.8382V0.48H64.8382ZM86.6302 22.512C86.6302 19.6527 85.8238 16.5803 83.4328 14.1894L74.9475 22.6746C74.8602 22.5873 74.7837 22.4901 74.7224 22.3912C74.6616 22.2934 74.6282 22.2142 74.6122 22.1689C74.5822 22.0839 74.6302 22.1674 74.6302 22.512H86.6302ZM83.5718 14.3331C81.4927 12.1106 78.7464 10.944 75.7342 10.944V22.944C75.686 22.944 75.5008 22.9317 75.2574 22.8269C75.0123 22.7214 74.8622 22.5883 74.8086 22.5309L83.5718 14.3331ZM75.7342 10.944C72.7268 10.944 70.0048 12.1037 67.9186 14.2595L76.5418 22.6045C76.5128 22.6345 76.3894 22.7461 76.1714 22.8387C75.953 22.9314 75.7834 22.944 75.7342 22.944V10.944ZM67.8486 14.3331C65.6198 16.7155 64.8382 19.6924 64.8382 22.512H76.8382C76.8382 22.1777 76.8837 22.078 76.8648 22.1334C76.8547 22.1629 76.8308 22.223 76.7846 22.3009C76.738 22.3797 76.6793 22.4588 76.6118 22.5309L67.8486 14.3331ZM64.8382 22.512C64.8382 25.3293 65.6015 28.3369 67.8486 30.7389L76.6118 22.5411C76.6849 22.6192 76.7463 22.7028 76.7937 22.7834C76.8404 22.8629 76.8633 22.922 76.8716 22.9468C76.8867 22.9915 76.8382 22.8737 76.8382 22.512H64.8382ZM67.9186 30.8125C70.0048 32.9683 72.7268 34.128 75.7342 34.128V22.128C75.7834 22.128 75.953 22.1406 76.1714 22.2333C76.3894 22.3259 76.5128 22.4375 76.5418 22.4675L67.9186 30.8125ZM75.7342 34.128C78.7465 34.128 81.4927 32.9614 83.5718 30.7389L74.8086 22.5411C74.8622 22.4837 75.0123 22.3506 75.2574 22.2451C75.5008 22.1403 75.686 22.128 75.7342 22.128V34.128ZM83.5674 30.7436C85.7983 28.364 86.6302 25.3941 86.6302 22.512H74.6302C74.6302 22.8249 74.5865 22.9167 74.605 22.8638C74.6144 22.8367 74.6358 22.7847 74.6752 22.719C74.715 22.6527 74.7626 22.5901 74.813 22.5364L83.5674 30.7436ZM120.139 24.432V30.432H125.407L126.089 25.208L120.139 24.432ZM102.331 24.432V18.432H95.9271L96.3439 24.8225L102.331 24.432ZM103.531 27.744L99.1953 31.8913L99.2875 31.9877L99.3839 32.0798L103.531 27.744ZM109.675 26.688V20.688H105.89L104.26 24.1036L109.675 26.688ZM119.707 26.688L125.562 28.0003L127.201 20.688H119.707V26.688ZM117.259 31.68L112.633 27.8587L112.625 27.8694L117.259 31.68ZM112.747 35.088L115.237 40.5469L112.747 35.088ZM99.5952 34.656L96.7163 39.9202L96.7334 39.9296L96.7506 39.9388L99.5952 34.656ZM94.7472 29.856L89.4984 32.763L89.5154 32.7937L89.5328 32.8242L94.7472 29.856ZM94.7472 15.216L99.9766 18.1576L99.9863 18.1403L99.9959 18.123L94.7472 15.216ZM99.5472 10.416L96.7026 5.13317L96.6854 5.14241L96.6683 5.15177L99.5472 10.416ZM113.755 10.368L116.57 5.06931V5.0693L113.755 10.368ZM118.555 15.072L113.326 18.0136L113.336 18.0312L113.346 18.0488L118.555 15.072ZM110.683 19.872V25.872H116.683V19.872H110.683ZM109.531 17.184L105.58 21.6995L105.635 21.7471L105.69 21.7933L109.531 17.184ZM103.819 17.136L107.64 21.7618L107.699 21.7134L107.756 21.6636L103.819 17.136ZM102.379 19.872L96.4785 18.785L95.173 25.872H102.379V19.872ZM114.283 22.224C114.283 22.6983 114.252 23.1751 114.19 23.656L126.089 25.208C126.218 24.2169 126.283 23.2217 126.283 22.224H114.283ZM120.139 18.432H102.331V30.432H120.139V18.432ZM96.3439 24.8225C96.4915 27.0854 97.1609 29.7644 99.1953 31.8913L107.867 23.5967C108.173 23.9168 108.303 24.207 108.344 24.3201C108.379 24.4159 108.339 24.3504 108.318 24.0415L96.3439 24.8225ZM99.3839 32.0798C101.352 33.9627 103.818 34.8 106.315 34.8V22.8C106.39 22.8 106.61 22.8132 106.907 22.926C107.215 23.0427 107.481 23.2193 107.679 23.4081L99.3839 32.0798ZM106.315 34.8C108.017 34.8 109.843 34.4087 111.524 33.3518C113.207 32.2938 114.354 30.8151 115.09 29.2724L104.26 24.1036C104.325 23.9689 104.575 23.5462 105.138 23.1922C105.7 22.8393 106.181 22.8 106.315 22.8V34.8ZM109.675 32.688H119.707V20.688H109.675V32.688ZM113.852 25.3757C113.644 26.3067 113.25 27.1118 112.633 27.8587L121.885 35.5013C123.7 33.3042 124.939 30.7813 125.562 28.0003L113.852 25.3757ZM112.625 27.8694C112.064 28.5515 111.314 29.147 110.257 29.6291L115.237 40.5469C117.828 39.365 120.087 37.6885 121.894 35.4906L112.625 27.8694ZM110.257 29.6291C109.291 30.0698 108.136 30.336 106.699 30.336V42.336C109.678 42.336 112.555 41.7702 115.237 40.5469L110.257 29.6291ZM106.699 30.336C104.911 30.336 103.542 29.9664 102.44 29.3732L96.7506 39.9388C99.8089 41.5856 103.176 42.336 106.699 42.336V30.336ZM102.474 29.3918C101.428 28.8198 100.61 28.0265 99.9616 26.8878L89.5328 32.8242C91.2526 35.8455 93.6662 38.2522 96.7163 39.9202L102.474 29.3918ZM99.9959 26.949C99.4203 25.9096 99.0192 24.4987 99.0192 22.512H87.0192C87.0192 26.1572 87.7701 29.6424 89.4984 32.763L99.9959 26.949ZM99.0192 22.512C99.0192 20.5221 99.4213 19.1448 99.9766 18.1576L89.5177 12.2744C87.7691 15.3832 87.0192 18.8699 87.0192 22.512H99.0192ZM99.9959 18.123C100.608 17.0178 101.395 16.2442 102.426 15.6802L96.6683 5.15177C93.6036 6.82781 91.1903 9.25422 89.4984 12.309L99.9959 18.123ZM102.392 15.6988C103.483 15.1111 104.866 14.736 106.699 14.736V2.736C103.157 2.736 99.7711 3.4809 96.7026 5.13317L102.392 15.6988ZM106.699 14.736C108.517 14.736 109.878 15.1022 110.94 15.6667L116.57 5.0693C113.537 3.45776 110.193 2.736 106.699 2.736V14.736ZM110.94 15.6667C111.96 16.2086 112.729 16.952 113.326 18.0136L123.785 12.1304C122.078 9.09597 119.646 6.70337 116.57 5.06931L110.94 15.6667ZM113.346 18.0488C113.891 19.0034 114.283 20.322 114.283 22.224H126.283C126.283 18.622 125.523 15.1726 123.765 12.0952L113.346 18.0488ZM116.683 19.872C116.683 17.2424 115.725 14.5354 113.372 12.5747L105.69 21.7933C105.366 21.5233 105.071 21.1444 104.88 20.6995C104.7 20.2777 104.683 19.9631 104.683 19.872H116.683ZM113.482 12.6685C111.479 10.9154 109.056 10.176 106.651 10.176V22.176C106.641 22.176 106.489 22.1736 106.253 22.0911C106.007 22.005 105.771 21.8666 105.58 21.6995L113.482 12.6685ZM106.651 10.176C104.328 10.176 101.902 10.8522 99.8821 12.6084L107.756 21.6636C107.522 21.867 107.256 22.0135 107.005 22.0984C106.769 22.1786 106.63 22.176 106.651 22.176V10.176ZM99.9979 12.5102C97.8871 14.254 96.8813 16.5984 96.4785 18.785L108.28 20.959C108.303 20.8317 108.309 20.8959 108.217 21.0705C108.116 21.2609 107.932 21.5208 107.64 21.7618L99.9979 12.5102ZM102.379 25.872H110.683V13.872H102.379V25.872ZM141.481 36L136.506 39.3531L138.289 42H141.481V36ZM134.041 24.96L139.017 21.6069L128.041 5.32051V24.96H134.041ZM134.041 36V42H140.041V36H134.041ZM124.633 36H118.633V42H124.633V36ZM124.633 0.48V-5.52H118.633V0.48H124.633ZM134.041 0.48H140.041V-5.52H134.041V0.48ZM134.041 19.632H128.041V38.5656L138.946 23.0877L134.041 19.632ZM141.481 9.072V3.072H138.369L136.576 5.61628L141.481 9.072ZM152.761 9.072L157.484 12.773L165.086 3.072H152.761V9.072ZM142.153 22.608L137.431 18.907L134.488 22.6615L137.483 26.3745L142.153 22.608ZM152.953 36V42H165.5L157.624 32.2335L152.953 36ZM146.457 32.6469L139.017 21.6069L129.066 28.3131L136.506 39.3531L146.457 32.6469ZM128.041 24.96V36H140.041V24.96H128.041ZM134.041 30H124.633V42H134.041V30ZM130.633 36V0.48H118.633V36H130.633ZM124.633 6.48H134.041V-5.52H124.633V6.48ZM128.041 0.48V19.632H140.041V0.48H128.041ZM138.946 23.0877L146.386 12.5277L136.576 5.61628L129.136 16.1763L138.946 23.0877ZM141.481 15.072H152.761V3.072H141.481V15.072ZM148.039 5.37099L137.431 18.907L146.876 26.309L157.484 12.773L148.039 5.37099ZM137.483 26.3745L148.283 39.7665L157.624 32.2335L146.824 18.8415L137.483 26.3745ZM152.953 30H141.481V42H152.953V30ZM189.139 2.16L194.812 4.1152L197.554 -3.84H189.139V2.16ZM177.475 36V42H181.754L183.148 37.9552L177.475 36ZM165.427 36L159.757 37.9624L161.155 42H165.427V36ZM153.715 2.16V-3.84H145.29L148.045 4.12239L153.715 2.16ZM163.795 2.16L169.519 0.360746L168.199 -3.84H163.795V2.16ZM171.475 26.592L165.752 28.3913L171.493 46.6574L177.203 28.381L171.475 26.592ZM179.107 2.16V-3.84H174.696L173.38 0.370989L179.107 2.16ZM183.467 0.204798L171.803 34.0448L183.148 37.9552L194.812 4.1152L183.467 0.204798ZM177.475 30H165.427V42H177.475V30ZM171.097 34.0376L159.385 0.197611L148.045 4.12239L159.757 37.9624L171.097 34.0376ZM153.715 8.16H163.795V-3.84H153.715V8.16ZM158.072 3.95925L165.752 28.3913L177.199 24.7927L169.519 0.360746L158.072 3.95925ZM177.203 28.381L184.835 3.94901L173.38 0.370989L165.748 24.803L177.203 28.381ZM179.107 8.16H189.139V-3.84H179.107V8.16ZM217.867 19.056L212.645 16.1004L212.636 16.117L212.627 16.1336L217.867 19.056ZM213.595 23.088L216.386 28.3995L216.402 28.3908L216.418 28.3821L213.595 23.088ZM201.979 24.576V18.576H195.979V24.576H201.979ZM201.979 36V42H207.979V36H201.979ZM192.571 36H186.571V42H192.571V36ZM192.571 2.16V-3.84H186.571V2.16H192.571ZM213.547 3.6L210.827 8.94831L210.845 8.9575L210.864 8.96656L213.547 3.6ZM217.867 7.584L212.645 10.5396L212.645 10.5396L217.867 7.584ZM201.979 9.744V3.744H195.979V9.744H201.979ZM201.979 17.088H195.979V23.088H201.979V17.088ZM213.307 13.44C213.307 14.5068 213.069 15.3523 212.645 16.1004L223.088 22.0116C224.585 19.3677 225.307 16.4692 225.307 13.44H213.307ZM212.627 16.1336C212.336 16.654 211.823 17.233 210.771 17.7939L216.418 28.3821C219.207 26.895 221.541 24.7859 223.107 21.9784L212.627 16.1336ZM210.804 17.7765C209.99 18.2041 208.688 18.576 206.635 18.576V30.576C210.085 30.576 213.423 29.9559 216.386 28.3995L210.804 17.7765ZM206.635 18.576H201.979V30.576H206.635V18.576ZM195.979 24.576V36H207.979V24.576H195.979ZM201.979 30H192.571V42H201.979V30ZM198.571 36V2.16H186.571V36H198.571ZM192.571 8.16H206.635V-3.84H192.571V8.16ZM206.635 8.16C208.67 8.16 209.987 8.52091 210.827 8.94831L216.266 -1.74831C213.331 -3.24092 210.04 -3.84 206.635 -3.84V8.16ZM210.864 8.96656C211.829 9.44951 212.332 9.9863 212.645 10.5396L223.088 4.62841C221.482 1.7897 219.104 -0.32951 216.23 -1.76656L210.864 8.96656ZM212.645 10.5396C213.03 11.2196 213.307 12.1278 213.307 13.44H225.307C225.307 10.3362 224.623 7.3404 223.088 4.62841L212.645 10.5396ZM205.723 23.088C207.851 23.088 210.567 22.612 212.763 20.6011C215.059 18.4986 215.707 15.7235 215.707 13.44H203.707C203.707 13.5885 203.691 12.6374 204.659 11.7509C205.527 10.956 206.25 11.088 205.723 11.088V23.088ZM215.707 13.44C215.707 11.1628 215.072 8.38511 212.791 6.26935C210.596 4.2324 207.869 3.744 205.723 3.744V15.744C206.233 15.744 205.498 15.8716 204.63 15.0666C203.678 14.1829 203.707 13.2532 203.707 13.44H215.707ZM205.723 3.744H201.979V15.744H205.723V3.744ZM195.979 9.744V17.088H207.979V9.744H195.979ZM201.979 23.088H205.723V11.088H201.979V23.088ZM254.93 36V42H260.93V36H254.93ZM245.522 36L240.52 39.3135L242.3 42H245.522V36ZM232.994 17.088L237.996 13.7745L226.994 -2.83399V17.088H232.994ZM232.994 36V42H238.994V36H232.994ZM223.586 36H217.586V42H223.586V36ZM223.586 2.16V-3.84H217.586V2.16H223.586ZM232.994 2.16L238.016 -1.12452L236.239 -3.84H232.994V2.16ZM245.522 21.312L240.501 24.5965L251.522 41.4449V21.312H245.522ZM245.522 2.16V-3.84H239.522V2.16H245.522ZM254.93 2.16H260.93V-3.84H254.93V2.16ZM254.93 30H245.522V42H254.93V30ZM250.524 32.6865L237.996 13.7745L227.992 20.4015L240.52 39.3135L250.524 32.6865ZM226.994 17.088V36H238.994V17.088H226.994ZM232.994 30H223.586V42H232.994V30ZM229.586 36V2.16H217.586V36H229.586ZM223.586 8.16H232.994V-3.84H223.586V8.16ZM227.973 5.44451L240.501 24.5965L250.544 18.0275L238.016 -1.12452L227.973 5.44451ZM251.522 21.312V2.16H239.522V21.312H251.522ZM245.522 8.16H254.93V-3.84H245.522V8.16ZM248.93 2.16V36H260.93V2.16H248.93Z" fill="#0C7D70"/>
</svg>
