<svg width="351" height="400" viewBox="0 0 351 400" fill="none" xmlns="http://www.w3.org/2000/svg">
<g opacity="0.8">
<path opacity="0.6" fill-rule="evenodd" clip-rule="evenodd" d="M42.4685 294L42.1601 293.518C20.0102 258.924 10.0159 217.851 13.7746 176.863C17.5333 135.876 34.828 97.3401 62.8943 67.4163L63.2848 67L113 114.313L112.61 114.729C95.0616 133.444 84.2461 157.542 81.8902 183.172C79.5344 208.803 85.774 234.49 99.6129 256.132L99.9202 256.612L42.4685 294ZM98.3508 256.27C84.5885 234.515 78.3962 208.763 80.758 183.067C83.1198 157.371 93.9005 133.202 111.394 114.36L63.3311 68.6195C35.669 98.2977 18.6246 136.426 14.9068 176.969C11.1889 217.511 21.0112 258.138 42.8081 292.416L98.3508 256.27Z" fill="url(#paint0_linear_151_2227)"/>
<path opacity="0.6" fill-rule="evenodd" clip-rule="evenodd" d="M305.948 112.228L306.219 112.648C325.7 142.86 334.49 178.731 331.184 214.527C327.878 250.322 312.668 283.977 287.984 310.11L287.64 310.474L243.916 269.154L244.259 268.79C259.693 252.446 269.205 231.401 271.277 209.017C273.349 186.632 267.861 164.199 255.69 145.299L255.42 144.88L305.948 112.228ZM256.8 145.178C268.904 164.178 274.35 186.668 272.273 209.109C270.195 231.55 260.714 252.658 245.328 269.113L287.599 309.059C311.928 283.14 326.919 249.842 330.188 214.435C333.458 179.028 324.82 143.547 305.649 113.611L256.8 145.178Z" fill="url(#paint1_linear_151_2227)"/>
<path opacity="0.6" fill-rule="evenodd" clip-rule="evenodd" d="M222.289 286.351L252.672 338.275L252.24 338.527C227.642 352.891 199.668 360.455 171.184 360.445C149.606 360.484 128.245 356.15 108.39 347.704L107.93 347.508L131.457 292.14L131.916 292.334C146.325 298.424 161.953 301.076 177.563 300.081C193.174 299.086 208.339 294.471 221.858 286.602L222.289 286.351ZM221.929 287.716C208.385 295.511 193.226 300.085 177.627 301.079C162.027 302.073 146.411 299.461 131.987 293.449L109.242 346.978C128.842 355.244 149.907 359.484 171.182 359.445H171.183C199.323 359.456 226.963 352.027 251.303 337.916L221.929 287.716Z" fill="url(#paint2_linear_151_2227)"/>
<g opacity="0.6">
<path fill-rule="evenodd" clip-rule="evenodd" d="M140.539 89.193C113.052 96.8382 89.3909 114.432 74.1545 138.552L58.9363 128.94C76.5584 101.042 103.925 80.6937 135.716 71.8513L140.539 89.193Z" fill="url(#paint3_linear_151_2227)" style="mix-blend-mode:color-dodge"/>
</g>
<g opacity="0.6">
<path fill-rule="evenodd" clip-rule="evenodd" d="M204.339 89.9188C187.834 84.9773 170.434 83.7832 153.41 86.4239L150.651 68.6365C170.324 65.5852 190.43 66.9649 209.502 72.6751L204.339 89.9188Z" fill="url(#paint4_linear_151_2227)" style="mix-blend-mode:color-dodge"/>
</g>
<path fill-rule="evenodd" clip-rule="evenodd" d="M228.321 100.276C225.249 98.5068 222.093 96.8803 218.85 95.3967L226.338 79.0283C230.09 80.7445 233.746 82.6282 237.306 84.6794L228.321 100.276Z" fill="url(#paint5_linear_151_2227)"/>
<path fill-rule="evenodd" clip-rule="evenodd" d="M38.9681 211.341C38.6516 207.679 38.487 203.994 38.4775 200.296L56.4775 200.25C56.4857 203.445 56.6278 206.628 56.9012 209.791L38.9681 211.341ZM50.0135 253.962C46.9995 247.229 44.5543 240.256 42.7037 233.115L60.128 228.599C61.7267 234.768 63.839 240.792 66.4425 246.608L50.0135 253.962ZM67.2078 282.234C64.9057 279.34 62.7332 276.359 60.6936 273.301L75.668 263.313C77.4297 265.954 79.3064 268.529 81.2952 271.029L67.2078 282.234Z" fill="url(#paint6_linear_151_2227)"/>
<path fill-rule="evenodd" clip-rule="evenodd" d="M58.3948 178.751C57.752 182.214 57.2686 185.732 56.9459 189.307L39.0188 187.689C39.3912 183.564 39.9504 179.489 40.6971 175.466L58.3948 178.751Z" fill="url(#paint7_linear_151_2227)"/>
<path fill-rule="evenodd" clip-rule="evenodd" d="M88.6393 17.7899L126.893 101.446L126.438 101.654C123.407 103.04 120.404 104.586 117.516 106.248L117.083 106.497L71.1951 26.7744L71.6284 26.525C76.9877 23.4396 82.558 20.5709 88.1846 17.9979L88.6393 17.7899ZM72.5609 27.1427L117.451 105.133C120.088 103.632 122.814 102.228 125.568 100.953L88.146 19.1158C82.8538 21.5523 77.6151 24.2502 72.5609 27.1427Z" fill="url(#paint8_linear_151_2227)"/>
<path opacity="0.6" fill-rule="evenodd" clip-rule="evenodd" d="M185.163 0.465393L185.662 0.501286C196.764 1.30023 207.78 3.02369 218.596 5.65375L219.082 5.77194L197.311 95.1451L196.825 95.0271C190.995 93.61 185.056 92.6818 179.071 92.2519L178.572 92.2161L185.163 0.465393ZM186.089 1.53523L179.641 91.2915C185.347 91.7276 191.009 92.6126 196.576 93.9384L217.874 6.50786C207.43 3.99606 196.8 2.3331 186.089 1.53523ZM152.932 0.807434L161.482 92.3956L160.984 92.4421C155.013 93 149.099 94.0555 143.303 95.5977L142.82 95.7262L119.127 6.84278L119.61 6.71412C130.369 3.85018 141.349 1.88998 152.434 0.853965L152.932 0.807434ZM120.351 7.55242L143.529 94.5039C149.063 93.0586 154.702 92.0523 160.394 91.4941L152.03 1.89678C141.335 2.92343 130.74 4.81483 120.351 7.55242ZM249.794 16.0554L250.253 16.2536C260.474 20.6663 270.309 25.9246 279.655 31.9739L280.075 32.2456L230.084 109.462L229.665 109.19C224.628 105.931 219.329 103.097 213.821 100.718L213.362 100.52L249.794 16.0554ZM250.316 17.3706L214.676 99.9991C219.918 102.292 224.971 104.994 229.788 108.08L278.691 32.5422C269.658 26.7273 260.168 21.6535 250.316 17.3706Z" fill="url(#paint9_linear_151_2227)"/>
<path opacity="0.6" fill-rule="evenodd" clip-rule="evenodd" d="M305.654 52.0118L306.023 52.3493C310.573 56.5128 314.987 60.9445 319.143 65.5216L319.479 65.8918L251.37 127.721L251.034 127.351C248.781 124.87 246.391 122.469 243.929 120.217L243.56 119.88L305.654 52.0118ZM305.716 53.4251L244.972 119.818C247.205 121.88 249.376 124.06 251.437 126.309L318.066 65.824C314.141 61.5242 309.991 57.3566 305.716 53.4251Z" fill="url(#paint10_linear_151_2227)"/>
<path fill-rule="evenodd" clip-rule="evenodd" d="M265.061 203.363C265.537 190.965 263.562 178.594 259.25 166.96L287.379 156.532C293.063 171.867 295.667 188.172 295.039 204.514C294.412 220.856 290.566 236.914 283.723 251.767L256.476 239.213C261.668 227.944 264.585 215.761 265.061 203.363Z" fill="url(#paint11_linear_151_2227)" style="mix-blend-mode:color-dodge"/>
<path opacity="0.6" fill-rule="evenodd" clip-rule="evenodd" d="M243.473 279.726L304.881 348.214L304.508 348.548C299.912 352.67 295.066 356.624 290.105 360.304L289.703 360.602L234.902 286.722L235.303 286.424C237.989 284.431 240.614 282.29 243.101 280.06L243.473 279.726ZM236.3 286.928L289.91 359.203C294.573 355.726 299.13 352.007 303.468 348.136L243.396 281.137C241.121 283.158 238.737 285.102 236.3 286.928Z" fill="url(#paint12_linear_151_2227)"/>
<path opacity="0.6" fill-rule="evenodd" clip-rule="evenodd" d="M121.926 295.683L122.372 295.909C128.271 298.912 134.436 301.361 140.788 303.225L141.268 303.365L115.399 391.64L114.919 391.499C103.096 388.03 91.6202 383.473 80.6388 377.885L80.1931 377.658L121.926 295.683ZM122.364 297.026L81.5383 377.22C92.1804 382.601 103.286 387.012 114.721 390.398L140.027 304.042C133.945 302.227 128.035 299.879 122.364 297.026ZM218.769 296.524L259.075 379.21L258.625 379.429C247.549 384.826 235.995 389.184 224.113 392.446L223.631 392.578L199.3 303.867L199.782 303.735C206.164 301.983 212.37 299.642 218.32 296.743L218.769 296.524ZM200.529 304.566L224.33 391.348C235.822 388.162 247.003 383.945 257.737 378.749L218.308 297.86C212.59 300.613 206.641 302.857 200.529 304.566ZM159.761 306.965L160.258 307.014C166.901 307.672 173.589 307.729 180.242 307.184L180.74 307.143L188.325 398.817L187.827 398.858C182.323 399.313 176.724 399.544 171.183 399.544C164.494 399.544 157.738 399.207 151.103 398.543L150.606 398.494L159.761 306.965ZM160.657 308.057L151.7 397.597C158.142 398.225 164.694 398.544 171.183 398.544C176.529 398.544 181.931 398.328 187.246 397.902L179.825 308.22C173.443 308.715 167.03 308.66 160.657 308.057Z" fill="url(#paint13_linear_151_2227)"/>
<path fill-rule="evenodd" clip-rule="evenodd" d="M97.5035 278.447L97.87 278.787C100.321 281.063 102.907 283.249 105.555 285.285L105.952 285.59L49.8824 358.513L49.486 358.208C44.5903 354.445 39.8132 350.405 35.2861 346.202L34.9197 345.862L97.5035 278.447ZM97.5569 279.86L36.3334 345.809C40.6063 349.756 45.0986 353.555 49.6994 357.11L104.55 285.772C102.147 283.906 99.7982 281.921 97.5569 279.86Z" fill="url(#paint14_linear_151_2227)"/>
<g opacity="0.4">
<path fill-rule="evenodd" clip-rule="evenodd" d="M108.626 115.079C92.1992 131.979 81.5573 153.628 78.2235 176.927C74.8897 200.227 79.035 223.982 90.066 244.794L58.4945 261.417C43.9431 233.963 38.475 202.627 42.8727 171.892C47.2703 141.157 61.3084 112.599 82.9781 90.3046L108.626 115.079Z" fill="url(#paint15_linear_151_2227)" style="mix-blend-mode:color-dodge"/>
</g>
<path style="mix-blend-mode:color-dodge" d="M245.181 273.761C286.048 232.893 286.048 166.633 245.181 125.765C204.313 84.8975 138.053 84.8975 97.1852 125.765C56.3174 166.633 56.3174 232.893 97.1852 273.761C138.053 314.629 204.313 314.629 245.181 273.761Z" fill="url(#paint16_radial_151_2227)"/>
<path opacity="0.4" d="M122.324 82.6705L106.322 44.379C109.87 42.8959 113.519 41.5179 117.165 40.2827L130.478 79.5904C127.735 80.519 124.991 81.5555 122.324 82.6705Z" fill="url(#paint17_linear_151_2227)"/>
<path opacity="0.4" d="M255.8 105.272C251.633 101.54 247.227 98.0858 242.609 94.9301L266.014 60.6583C272.133 64.8401 277.972 69.4181 283.493 74.3631L255.8 105.272ZM228.189 86.4202C223.203 83.9078 218.055 81.7283 212.781 79.896L226.386 40.6893C233.397 43.1245 240.24 46.0213 246.868 49.3605L228.189 86.4202ZM196.649 75.4764C191.17 74.3635 185.623 73.6123 180.046 73.2275L182.898 31.8253C190.298 32.336 197.656 33.333 204.925 34.8097L196.649 75.4764ZM146.645 75.2914L138.669 34.5644C145.947 33.1421 153.311 32.2 160.712 31.7443L163.259 73.1663C157.681 73.5099 152.131 74.2197 146.645 75.2914Z" fill="url(#paint18_linear_151_2227)"/>
<path d="M272.979 124.079C271.255 121.763 269.42 119.468 267.527 117.259L299.039 90.2548C301.545 93.1792 303.976 96.2193 306.264 99.2912L272.979 124.079Z" fill="url(#paint19_linear_151_2227)"/>
<path opacity="0.4" fill-rule="evenodd" clip-rule="evenodd" d="M281.952 164.891C281.04 161.993 280.024 159.158 278.905 156.384L337.335 132.826C339.073 137.136 340.642 141.517 342.043 145.967L281.952 164.891Z" fill="url(#paint20_linear_151_2227)"/>
<g style="mix-blend-mode:lighten">
<path fill-rule="evenodd" clip-rule="evenodd" d="M348.676 175.771C348.942 177.76 349.175 179.752 349.375 181.748L286.688 188.024C286.558 186.725 286.406 185.428 286.233 184.134L348.676 175.771ZM350.174 193.755C350.24 195.75 350.273 197.747 350.273 199.745C350.282 206.656 349.889 213.544 349.103 220.375L286.516 213.176C287.025 208.75 287.279 204.287 287.273 199.809L287.273 199.782L287.273 199.755C287.273 198.449 287.251 197.143 287.208 195.839L350.174 193.755ZM339.664 260.596C337.325 267.072 334.608 273.424 331.52 279.617L275.139 251.506C277.137 247.499 278.896 243.389 280.409 239.199L339.664 260.596Z" fill="url(#paint21_linear_151_2227)"/>
</g>
<path fill-rule="evenodd" clip-rule="evenodd" d="M265.343 267.684C267.107 265.243 268.777 262.734 270.353 260.154L324.121 292.987C321.694 296.961 319.118 300.833 316.393 304.601L265.343 267.684Z" fill="url(#paint22_linear_151_2227)"/>
<path fill-rule="evenodd" clip-rule="evenodd" d="M213.665 318.789L227.791 358.873L227.32 359.04C223.668 360.327 219.935 361.498 216.223 362.523L215.741 362.656L204.433 321.688L204.914 321.555C207.681 320.791 210.467 319.916 213.194 318.955L213.665 318.789ZM205.662 322.385L216.439 361.425C219.81 360.484 223.194 359.421 226.515 358.262L213.054 320.064C210.615 320.912 208.133 321.692 205.662 322.385Z" fill="url(#paint23_linear_151_2227)"/>
<path opacity="0.6" fill-rule="evenodd" clip-rule="evenodd" d="M102.826 306.035L103.247 306.304C108.204 309.471 113.375 312.289 118.724 314.736L119.178 314.944L101.512 353.598L101.057 353.389C93.9046 350.118 86.9895 346.351 80.3618 342.117L79.9404 341.848L102.826 306.035ZM103.131 307.415L81.322 341.543C87.6412 345.554 94.2212 349.138 101.018 352.271L117.854 315.436C112.775 313.089 107.857 310.409 103.131 307.415ZM134.733 320.772L135.212 320.913C140.85 322.582 146.598 323.854 152.413 324.72L152.907 324.794L146.653 366.831L146.159 366.758C138.377 365.598 130.685 363.896 123.141 361.664L122.661 361.522L134.733 320.772ZM135.408 322.013L123.904 360.846C131.09 362.949 138.409 364.569 145.812 365.694L151.771 325.634C146.243 324.789 140.777 323.579 135.408 322.013ZM188.139 324.978L193.616 367.123L193.12 367.188C185.846 368.13 178.518 368.603 171.183 368.603C170.662 368.603 170.14 368.6 169.619 368.596L169.118 368.591L169.523 326.093L170.022 326.097C175.913 326.148 181.801 325.795 187.644 325.042L188.139 324.978ZM170.513 327.1L170.128 367.599C170.48 367.601 170.831 367.603 171.183 367.603C178.308 367.603 185.427 367.154 192.495 366.259L187.276 326.097C181.716 326.792 176.117 327.127 170.513 327.1Z" fill="url(#paint24_linear_151_2227)"/>
<path opacity="0.6" fill-rule="evenodd" clip-rule="evenodd" d="M82.3152 289.566L82.6719 289.916C84.7316 291.938 86.8901 293.917 89.0873 295.797L89.4672 296.122L61.8306 328.411L61.4507 328.086C58.5223 325.578 55.6442 322.94 52.8966 320.243L52.5398 319.892L82.3152 289.566ZM82.3289 290.979L53.9545 319.879C56.4584 322.322 59.0678 324.714 61.7217 327L88.0578 296.231C86.1008 294.543 84.1772 292.779 82.3289 290.979Z" fill="url(#paint25_linear_151_2227)"/>
<g opacity="0.4">
<path fill-rule="evenodd" clip-rule="evenodd" d="M47.965 184.959C47.3834 189.871 47.0923 194.812 47.0934 199.758L47.0934 199.775L47.0933 199.791C47.0753 214.952 49.8434 229.986 55.2597 244.147L11.3615 260.938C3.88985 241.404 0.0704172 220.664 0.0933645 199.751C0.0926187 192.96 0.492563 186.175 1.29112 179.432L47.965 184.959Z" fill="url(#paint26_linear_151_2227)" style="mix-blend-mode:color-dodge"/>
</g>
<g opacity="0.4">
<path fill-rule="evenodd" clip-rule="evenodd" d="M86.6004 108.966C73.8652 120.825 63.7595 135.223 56.936 151.232L13.7 132.802C23.1012 110.747 37.0245 90.9086 54.5706 74.5697L86.6004 108.966Z" fill="url(#paint27_linear_151_2227)" style="mix-blend-mode:color-dodge"/>
</g>
<path opacity="0.4" fill-rule="evenodd" clip-rule="evenodd" d="M252 118.362C249.752 116.129 247.406 113.983 244.965 111.932L256.549 98.1538C259.371 100.527 262.085 103.009 264.686 105.593L252 118.362ZM274.134 149.199C271.331 143.491 268.058 138.025 264.35 132.859L278.973 122.363C283.262 128.339 287.048 134.661 290.291 141.264L274.134 149.199ZM283.43 176.167C282.773 173.048 281.99 169.966 281.082 166.93L298.329 161.776C299.378 165.288 300.285 168.853 301.044 172.462C301.804 176.07 302.41 179.698 302.864 183.335L285.003 185.567C284.61 182.423 284.086 179.287 283.43 176.167ZM283.419 223.493C284.731 217.27 285.524 210.949 285.789 204.596L303.774 205.347C303.467 212.697 302.549 220.009 301.031 227.207L283.419 223.493ZM274.11 250.457C275.517 247.596 276.8 244.686 277.957 241.737L294.713 248.312C293.374 251.724 291.891 255.09 290.263 258.399L274.11 250.457Z" fill="url(#paint28_linear_151_2227)"/>
<path fill-rule="evenodd" clip-rule="evenodd" d="M173.137 39.0916L173.637 39.0994C211.428 39.6852 247.805 53.5651 276.381 78.3022L276.76 78.6296L237.357 124.091L236.979 123.764C219.11 108.296 196.364 99.6181 172.733 99.2527L172.234 99.2449L173.137 39.0916ZM174.122 40.1078L173.249 98.2617C196.768 98.7412 219.393 107.373 237.255 122.682L275.348 78.7314C247.134 54.4615 211.332 40.8011 174.122 40.1078Z" fill="url(#paint29_linear_151_2227)"/>
</g>
<defs>
<linearGradient id="paint0_linear_151_2227" x1="163" y1="196.5" x2="32" y2="84.5" gradientUnits="userSpaceOnUse">
<stop stop-color="#35F8B2"/>
<stop offset="1" stop-color="#1E2142"/>
</linearGradient>
<linearGradient id="paint1_linear_151_2227" x1="243.916" y1="211.351" x2="331.865" y2="211.351" gradientUnits="userSpaceOnUse">
<stop stop-color="#35F8B2"/>
<stop offset="1" stop-color="#1E2142"/>
</linearGradient>
<linearGradient id="paint2_linear_151_2227" x1="107.93" y1="323.398" x2="252.672" y2="323.398" gradientUnits="userSpaceOnUse">
<stop stop-color="#27E29F"/>
<stop offset="1" stop-color="#1E2142"/>
</linearGradient>
<linearGradient id="paint3_linear_151_2227" x1="59" y1="170.5" x2="99.7325" y2="71.8479" gradientUnits="userSpaceOnUse">
<stop stop-color="#4FFFF4"/>
<stop offset="1" stop-color="#171C40"/>
</linearGradient>
<linearGradient id="paint4_linear_151_2227" x1="180.082" y1="89.9144" x2="180.082" y2="67.0565" gradientUnits="userSpaceOnUse">
<stop stop-color="#8AFECD"/>
<stop offset="1" stop-color="#1E2142"/>
</linearGradient>
<linearGradient id="paint5_linear_151_2227" x1="228.077" y1="278.953" x2="228.077" y2="79.0285" gradientUnits="userSpaceOnUse">
<stop stop-color="#8AFECD"/>
<stop offset="1" stop-color="#1E2142"/>
</linearGradient>
<linearGradient id="paint6_linear_151_2227" x1="59.8886" y1="308.006" x2="59.8886" y2="175.471" gradientUnits="userSpaceOnUse">
<stop stop-color="#4FFFF4"/>
<stop offset="1" stop-color="#1E2142"/>
</linearGradient>
<linearGradient id="paint7_linear_151_2227" x1="48.7073" y1="308.007" x2="48.7073" y2="175.471" gradientUnits="userSpaceOnUse">
<stop stop-color="#35F8B2"/>
<stop offset="1" stop-color="#1E2142"/>
</linearGradient>
<linearGradient id="paint8_linear_151_2227" x1="126.893" y1="62.1437" x2="71.1951" y2="62.1437" gradientUnits="userSpaceOnUse">
<stop stop-color="#8AFECD"/>
<stop offset="1" stop-color="#1E2142"/>
</linearGradient>
<linearGradient id="paint9_linear_151_2227" x1="280.075" y1="54.9638" x2="119.127" y2="54.9638" gradientUnits="userSpaceOnUse">
<stop stop-color="#17DBCF"/>
<stop offset="1" stop-color="#1E2142"/>
</linearGradient>
<linearGradient id="paint10_linear_151_2227" x1="319.479" y1="89.8665" x2="243.56" y2="89.8665" gradientUnits="userSpaceOnUse">
<stop stop-color="#4FFFF4"/>
<stop offset="1" stop-color="#1E2142"/>
</linearGradient>
<linearGradient id="paint11_linear_151_2227" x1="308.5" y1="252" x2="265" y2="170.5" gradientUnits="userSpaceOnUse">
<stop stop-color="#27E29F"/>
<stop offset="1" stop-color="#1E2142"/>
</linearGradient>
<linearGradient id="paint12_linear_151_2227" x1="304.881" y1="320.164" x2="234.902" y2="320.164" gradientUnits="userSpaceOnUse">
<stop stop-color="#4FFFF4"/>
<stop offset="1" stop-color="#1E2142"/>
</linearGradient>
<linearGradient id="paint13_linear_151_2227" x1="259.075" y1="347.613" x2="80.1931" y2="347.613" gradientUnits="userSpaceOnUse">
<stop stop-color="#8AFECD"/>
<stop offset="1" stop-color="#1E2142"/>
</linearGradient>
<linearGradient id="paint14_linear_151_2227" x1="105.952" y1="318.48" x2="34.9197" y2="318.48" gradientUnits="userSpaceOnUse">
<stop stop-color="#17DBCF"/>
<stop offset="1" stop-color="#1E2142"/>
</linearGradient>
<linearGradient id="paint15_linear_151_2227" x1="105.964" y1="177.369" x2="42.029" y2="174.644" gradientUnits="userSpaceOnUse">
<stop stop-color="#17DBCF"/>
<stop offset="1" stop-color="#1E2142"/>
</linearGradient>
<radialGradient id="paint16_radial_151_2227" cx="0" cy="0" r="1" gradientUnits="userSpaceOnUse" gradientTransform="translate(171.183 199.763) scale(143.57)">
<stop stop-color="#35F8B2"/>
<stop offset="1" stop-color="#17A986" stop-opacity="0.15"/>
</radialGradient>
<linearGradient id="paint17_linear_151_2227" x1="79" y1="15" x2="231.911" y2="173.644" gradientUnits="userSpaceOnUse">
<stop stop-color="#35F8B2"/>
<stop offset="1" stop-color="#1E2142"/>
</linearGradient>
<linearGradient id="paint18_linear_151_2227" x1="139" y1="-55.5" x2="265.639" y2="125.396" gradientUnits="userSpaceOnUse">
<stop stop-color="#35F8B2"/>
<stop offset="1" stop-color="#1E2142"/>
</linearGradient>
<linearGradient id="paint19_linear_151_2227" x1="164.731" y1="-14.1109" x2="292.198" y2="113.357" gradientUnits="userSpaceOnUse">
<stop stop-color="#35F8B2"/>
<stop offset="1" stop-color="#1E2142"/>
</linearGradient>
<linearGradient id="paint20_linear_151_2227" x1="283" y1="118" x2="327" y2="165" gradientUnits="userSpaceOnUse">
<stop stop-color="#4FFFF4"/>
<stop offset="1" stop-color="#1E2142"/>
</linearGradient>
<linearGradient id="paint21_linear_151_2227" x1="266.783" y1="168.506" x2="359.635" y2="261.358" gradientUnits="userSpaceOnUse">
<stop stop-color="#4FFFF4"/>
<stop offset="1" stop-color="#1E2142" stop-opacity="0"/>
</linearGradient>
<linearGradient id="paint22_linear_151_2227" x1="224.841" y1="210.447" x2="317.693" y2="303.3" gradientUnits="userSpaceOnUse">
<stop stop-color="#8AFECD"/>
<stop offset="1" stop-color="#1E2142"/>
</linearGradient>
<linearGradient id="paint23_linear_151_2227" x1="200.051" y1="326.07" x2="230.323" y2="356.342" gradientUnits="userSpaceOnUse">
<stop stop-color="#4FFFF4"/>
<stop offset="1" stop-color="#1E2142"/>
</linearGradient>
<linearGradient id="paint24_linear_151_2227" x1="104.744" y1="304.117" x2="180.683" y2="380.056" gradientUnits="userSpaceOnUse">
<stop stop-color="#8AFECD"/>
<stop offset="1" stop-color="#1E2142"/>
</linearGradient>
<linearGradient id="paint25_linear_151_2227" x1="67.4386" y1="304.442" x2="76.6189" y2="313.623" gradientUnits="userSpaceOnUse">
<stop stop-color="#35F8B2"/>
<stop offset="1" stop-color="#1E2142"/>
</linearGradient>
<linearGradient id="paint26_linear_151_2227" x1="33" y1="153" x2="27.9997" y2="275.5" gradientUnits="userSpaceOnUse">
<stop stop-color="#35F8B2"/>
<stop offset="0.40625" stop-color="#17A986"/>
<stop offset="1" stop-color="#1E2142"/>
</linearGradient>
<linearGradient id="paint27_linear_151_2227" x1="19.5" y1="72.5" x2="69.2972" y2="138.863" gradientUnits="userSpaceOnUse">
<stop stop-color="#17DBCF"/>
<stop offset="0.37885" stop-color="#17A986"/>
<stop offset="1" stop-color="#1E2142"/>
</linearGradient>
<linearGradient id="paint28_linear_151_2227" x1="263.5" y1="299" x2="274.427" y2="79.0282" gradientUnits="userSpaceOnUse">
<stop stop-color="#8AFECD"/>
<stop offset="1" stop-color="#1E2142"/>
</linearGradient>
<linearGradient id="paint29_linear_151_2227" x1="172.234" y1="81.5915" x2="276.759" y2="81.5915" gradientUnits="userSpaceOnUse">
<stop stop-color="#17DBCF"/>
<stop offset="1" stop-color="#1E2142"/>
</linearGradient>
</defs>
</svg>
