<svg width="189" height="244" viewBox="0 0 189 244" fill="none" xmlns="http://www.w3.org/2000/svg">
<path fill-rule="evenodd" clip-rule="evenodd" d="M34.1286 150.13L33.4126 149.984C28.9832 149.082 25.0874 146.976 22.1889 143.633C22.2439 143.764 22.2978 143.89 22.3504 144.012L25.319 150.909L18.3808 148.028C9.65603 144.406 2.2937 138.104 0.43568 128.468C-1.44314 118.723 2.98895 108.918 9.23092 101.637L14.3061 95.7177L14.5865 103.359C16.8916 101.304 19.1401 99.0997 21.146 96.9178C21.6037 96.4199 22.0531 95.9148 22.4943 95.4023C24.5626 92.9948 26.173 90.3595 27.8034 87.6513C34.2491 76.9431 39.3459 73.7507 48.7053 66.0989L44.2499 75.1534C52.1487 71.4906 60.4684 68.3823 68.6805 66.1777C75.6722 64.3011 82.0534 60.1852 87.3749 55.3582C89.8353 53.1267 92.627 50.2741 94.5885 47.5622L103.312 36.4372L100.137 49.6843C101.333 48.5226 102.5 47.3375 103.638 46.1291C109.347 40.0629 110.111 38.1371 112.962 30.6789L113.446 42.0906C113.476 42.3219 113.502 42.5592 113.522 42.8026C122.831 33.963 134.051 15.2825 138.724 6.62505L142.3 0L144.341 7.24533C147.674 19.0773 147.875 31.512 144.635 43.3809C144.186 45.0258 143.671 46.662 143.09 48.2749C143.544 47.9568 143.995 47.635 144.443 47.3095C152.961 41.1272 160.782 33.5107 167.734 25.6234C170.982 21.9378 174.329 17.9441 177.185 13.9346L182.326 6.71939L182.714 15.568C183.32 29.3974 180.701 42.8717 175.179 55.5472C171.593 63.7772 166.83 71.5697 161.212 78.5953C175.436 89.0663 184.453 105.241 187.693 122.449L188.736 127.991C186.152 126.916 183.558 125.781 180.938 124.801C186.455 135.831 187.373 144.742 188.19 156.587C185.691 154.756 184.041 154.003 184.041 154.003C184.041 154.003 186.263 159.089 187.528 164.288C187.929 165.915 188.24 167.563 188.459 169.224L189 173.431L184.838 172.599C183.882 172.408 182.925 172.214 181.968 172.017L184.334 176.419L187.528 182.199C187.528 182.199 196 214.5 130.5 238C64 255 41.1378 229 37 220.5C32.8622 212 32.1343 208.236 31.2779 204.497L30.6486 201.758L44.512 197.389C43.4045 195.201 42.2724 193.023 41.1378 190.853L39.4249 187.576L42.9711 186.523C44.0425 186.205 45.1054 185.852 46.1592 185.476C47.0951 182.699 47.8611 179.493 48.0068 176.421C43.7661 185.373 38.1101 187.173 28.2347 188.349C31.3461 182.203 35.4846 176.54 35.194 169.28L34.1721 168.561C33.1402 167.836 32.1064 167.209 31.4316 166.099C30.6343 164.786 30.6369 163.207 30.5241 161.725C30.246 158.06 30.204 157.436 31.9167 154.033C32.5276 152.791 33.2891 151.629 34.1841 150.573C34.1641 150.425 34.1456 150.278 34.1286 150.13Z" fill="#16E2B1"/>
<path fill-rule="evenodd" clip-rule="evenodd" d="M62.1828 168.082C66.7797 166.336 69.4979 162.428 72.3456 158.088C73.0739 159.76 73.9886 161.343 75.0724 162.809L62.4607 170.457C62.4607 170.457 63.9715 175.412 66.4673 180.072C66.4673 180.072 60.7561 183.096 54.0788 185.985C61.7513 178.529 62.1828 168.082 62.1828 168.082ZM137.376 63.972C132.271 67.4166 128.697 69.8279 128.412 70.7158C127.537 73.4373 123.895 81.3129 119.632 85.2143C119.632 85.2143 132.85 81.277 139.665 73.4825C139.665 73.4825 136.956 85.3786 129.32 90.7116C133.407 89.6008 137.415 88.219 141.318 86.5753C167.916 61.656 173.117 33.734 173.117 33.734C164.985 45.3415 147.916 56.8595 137.376 63.972ZM176.255 182.149L182.559 180.461L175.926 168.119C179.867 169.022 185.204 170.089 185.204 170.089C183.726 158.603 176.419 146.296 176.419 146.296C180.771 148.019 184.466 150.727 184.466 150.727C183.152 131.693 174.12 120.288 174.12 120.288C177.979 120.78 184.466 123.488 184.466 123.488C179.398 96.5707 162.635 83.6136 156.514 79.6942C166.344 68.173 180.745 46.0237 179.437 16.177C179.437 16.177 159.567 44.0716 135.756 56.7064C135.756 56.7064 149.057 36.5233 141.175 8.54683C141.175 8.54683 122.921 42.3833 110.023 49.6161L110.022 49.6182C110.524 45.5831 110.192 42.9619 110.192 42.9619C109.635 44.8407 100.867 54.215 92.7072 60.4724C95.2503 55.2118 96.8271 49.8226 96.8271 49.8226C96.8271 49.8226 85.7432 65.1651 69.24 69.5954C52.8786 73.9875 39.0194 81.4444 36.7017 82.6915L36.6439 82.7226C36.6439 82.7226 37.2187 80.9176 38.6967 78.4974C34.7428 82.1234 32.474 85.8923 30.2066 89.659C28.5484 92.4135 26.891 95.1668 24.5758 97.8623C19.5749 103.684 12.8129 109.14 12.8129 109.14C12.8129 109.14 11.4374 107.459 11.3142 104.095C-0.819674 118.248 -1.45215 137.067 19.3188 145.692C19.3188 145.692 17.738 142.062 17.3687 139.723C16.9506 137.076 20.8237 137.274 23.1413 140.662C24.6516 142.871 27.7599 146.248 33.79 147.476C33.79 147.476 32.5987 141.466 34.1188 135.457C34.1188 135.457 35.104 137.918 40.3178 140.052C40.3178 140.052 40.6869 136.339 40.0507 134.247C40.0507 134.247 42.699 136.032 45.5932 136.093C45.5932 136.093 46.0452 132.586 45.6346 129.92C45.6346 129.92 47.0276 132.121 50.1587 132.785C49.4095 133.887 48.5257 134.89 47.5277 135.773C41.4192 141.155 40.8651 143.032 41.1093 144.686C40.2964 143.518 39.4119 142.069 38.9291 140.716C38.9291 140.716 35.682 144.786 37.2235 152.084C36.0031 153.108 35.0722 154.558 34.4082 155.878C33.0546 158.567 33.0797 158.873 33.2693 161.184C33.2889 161.423 33.3103 161.684 33.3321 161.971C33.4657 163.732 33.4752 164.464 33.8023 165.005C34.0893 165.478 34.6206 165.804 35.6945 166.546L37.8799 168.083C39.0188 177.101 32.954 185.722 32.954 185.722C44.7772 182.687 46.6245 170.75 46.6245 170.75C47.8561 171.16 50.4424 171.775 50.4424 171.775C51.7334 177.814 49.6279 184.816 48.3212 188.32C46.709 188.924 45.1173 189.47 43.6078 189.919C43.6078 189.919 46.696 195.817 48.5998 199.698L34.0171 204.293C34.0171 204.293 35.9725 212.87 39.5401 218.754L39.583 218.742C45.9019 236.67 90.2564 246.206 126.746 234.094C163.399 221.927 188.503 198.584 182.5 180.5L170.993 183.558L170.99 183.559L156.805 187.328C160.027 173.54 157.443 154.862 155.76 147.932C165.227 125.044 151.53 109.896 125.558 108.232C135.287 104.606 143.065 95.411 147.728 88.6406C147.728 88.6406 148.999 87.6018 151.029 85.6034C170.989 95.705 176.171 114.873 176.171 114.873C170.424 112.411 161.228 111.099 161.228 111.099C173.544 120.124 176.828 141.291 176.828 141.291C172.723 137.681 161.228 133.579 161.228 133.579C175.35 146.378 177.567 164.099 177.567 164.099C174.283 162.376 160.736 157.782 160.736 157.782C172.938 168.646 176.255 182.149 176.255 182.149ZM145.209 190.41C145.985 189.249 157.087 172.219 152.779 154.032C151.903 155.596 150.931 157.19 149.85 158.813C149.85 158.813 151.574 155.244 151.862 151.429C146.6 161.005 137.553 168.278 127.221 170.535C127.231 170.936 127.244 171.332 127.257 171.731C127.397 176.105 127.546 180.788 125.123 195.747L145.209 190.41ZM114.535 198.561C115.147 197.683 118.271 192.33 121.039 171.412C112.161 171.555 103.391 167.677 97.0136 158.814C97.0136 158.814 103.336 164.762 114.297 164.721C114.297 164.721 111.012 166.321 109.452 166.691C109.452 166.691 141.349 173.254 147.589 143.226L147.59 143.228L147.592 143.233L147.595 143.242L147.599 143.255L147.604 143.271L147.61 143.29L147.618 143.312L147.626 143.338L147.636 143.366L147.646 143.397L147.657 143.431L147.669 143.468L147.682 143.508L147.696 143.55L147.71 143.594L147.725 143.641L147.741 143.691L147.757 143.742L147.774 143.796L147.792 143.851L147.81 143.908L147.828 143.968L147.847 144.029L147.866 144.091L147.886 144.155L147.906 144.221L147.926 144.288L147.947 144.357L147.967 144.426L147.988 144.497L148.009 144.568L148.03 144.641L148.051 144.715L148.073 144.789L148.094 144.864L148.115 144.94L148.136 145.015L148.157 145.092L148.178 145.168L148.198 145.245L148.219 145.322L148.239 145.399L148.259 145.476L148.278 145.553L148.297 145.629L148.315 145.705L148.334 145.781L148.351 145.856L148.368 145.931L148.385 146.005L148.401 146.079L148.416 146.151L148.43 146.222L148.444 146.292L148.457 146.362L148.469 146.43L148.481 146.496L148.491 146.561L148.501 146.625L148.509 146.687L148.517 146.747L148.524 146.806L148.529 146.863L148.533 146.918C148.544 147.063 148.662 146.967 148.841 146.671C152.455 143.107 159.431 113.317 118.637 114.215C118.637 114.215 116.235 115.666 114.229 118.766C112.691 121.012 111.335 124.364 111.578 129.083C116.894 128.83 126.61 130.454 130.291 136.292C130.291 136.292 128.362 135.02 126.555 134.979C126.555 134.979 133.082 138.917 129.305 147.942C125.529 156.967 109.434 160.7 101.881 159.551C101.881 159.551 120.922 157.824 121.987 144.61C117.203 142.432 109.267 139.921 98.9667 140.597C91.4902 141.088 86.3193 143.216 82.4314 146.104C80.6618 151.366 75.5657 155.917 75.5657 155.917C77.3393 160.643 80.2623 164.482 80.2623 164.482L66.9609 172.26L71.0006 181.252C66.6652 184.534 52.2145 191.229 52.2145 191.229C53.3311 197.596 55.7612 200.681 55.7612 200.681C49.7841 204.488 40.7851 207.704 40.7851 207.704C41.4726 212.168 44.558 216.034 45.3359 216.949L114.535 198.561ZM36.7801 159.863C35.8662 155.639 37.2235 152.084 37.2235 152.084C37.2235 152.084 41.1463 155.443 50.0135 154.869C53.0022 154.675 54.8568 153.646 56.143 152.09C56.3799 152.021 56.6171 151.942 56.8548 151.854C64.6057 148.966 75.7722 134.395 75.9034 133.673C75.9447 133.446 77.5946 132.027 79.7765 130.152C84.5241 126.071 91.7905 119.825 90.4855 118.971C90.2985 118.848 90.0678 118.693 89.8015 118.515C88.4465 117.606 86.1696 116.08 84.0353 115.039C84.7958 113.998 85.2971 112.792 85.4976 111.519C85.4976 111.519 84.9815 112.963 83.0495 114.591C81.7102 114.032 80.5012 113.75 79.7132 114.048C78.179 114.628 73.5042 117.169 70.2649 118.965C68.2579 119.121 66.2432 119.155 64.2321 119.067C45.9223 118.329 32.1286 132.522 32.1286 132.522C32.1286 132.522 28.4332 134.738 23.0964 134.245C17.7595 133.753 9.38466 132.932 8.39945 126.451C7.4146 119.969 10.3291 113.365 11.0678 112.011C11.0678 112.011 10.7806 115.826 12.9153 119.477C12.9153 119.477 11.8885 112.872 18.1284 108.893C29.7971 101.453 30.5527 100.402 36.7844 91.7421C37.2871 91.0434 37.8255 90.2953 38.408 89.4903C40.3378 86.8237 47.2758 83.952 53.557 81.901C57.7705 80.5253 68.0792 77.1567 76.2935 73.9482C73.6004 76.9234 71.9792 79.2385 72.0954 79.471C74.8541 76.8506 77.7611 74.3909 80.8023 72.104C82.8968 71.1986 84.6694 70.3438 85.9067 69.5954C87.0123 68.9266 88.0687 67.8731 89.0593 66.5935C96.813 62.0421 102.064 60.6832 102.064 60.6832C101.653 67.0827 94.0994 76.8459 94.0994 76.8459C100.78 71.6178 104.736 65.7629 107.063 60.4095C107.063 60.4095 129.11 47.4763 138.141 24.6682C138.141 24.6682 134.094 55.7382 119.45 72.5695C112.502 76.1957 103.356 78.8015 93.6868 79.1431C77.4298 79.7172 68.7265 86.1989 68.4801 86.773C68.4801 86.773 74.5506 83.1825 95.1626 82.1807C115.775 81.1786 122.833 74.0581 122.833 74.0581C117.825 86.6929 106.905 88.2514 106.905 88.2514C118.236 89.8923 129.32 85.1337 129.32 85.1337C121.766 94.9788 107.315 96.2913 107.315 96.2913C122.614 98.437 139.255 92.5171 139.255 92.5171C127.678 110.649 101.157 112.618 101.157 112.618C101.157 112.618 104.896 113.379 112.424 111.968C102.591 119.498 103.695 130.249 104.875 135.186C102.319 135.35 99.4832 135.636 96.3394 136.085C78.5301 138.627 72.8622 147.331 67.9609 154.857C67.0288 156.289 66.1244 157.678 65.1695 158.973C62.3808 162.757 59.161 165.748 53.5622 166.687C47.6999 167.671 43.2308 165.893 40.4765 164.188C40.4049 164.143 40.3347 164.1 40.2658 164.057C38.1736 162.764 37.2885 162.217 36.7801 159.863Z" fill="#0C7D70"/>
<path fill-rule="evenodd" clip-rule="evenodd" d="M41.5703 110.909C41.9809 110.253 49.6171 99.2595 61.6045 98.4389C73.5918 97.6181 85.5797 96.9618 95.1859 90.3163C74.3718 116.742 63.3726 106.388 41.5703 110.909Z" fill="#0C7D70"/>
<path fill-rule="evenodd" clip-rule="evenodd" d="M52.043 106.721C52.043 106.721 56.6204 101.336 62.1538 101.568C67.6873 101.8 71.135 101.887 72.9309 101.192C65.8587 108.704 58.5256 105.452 52.043 106.721Z" fill="#A0FFD7"/>
<path fill-rule="evenodd" clip-rule="evenodd" d="M9.55 133.676C9.55 133.676 11.3151 135.563 15.5026 136.466C15.5026 136.466 15.2152 139.666 17.3912 143.07C17.3912 143.07 9.42683 141.184 9.55 133.676Z" fill="white"/>
<path fill-rule="evenodd" clip-rule="evenodd" d="M12.3416 135.452C13.3576 135.898 14.4169 136.238 15.5027 136.466C15.5027 136.466 15.2153 139.666 17.3913 143.07C13.6666 140.818 12.3413 135.452 12.3413 135.452H12.3416Z" fill="#DADCDD"/>
<path fill-rule="evenodd" clip-rule="evenodd" d="M23.5491 137.574C23.5491 137.574 25.807 142.907 31.9649 145.286C31.9649 145.286 31.6454 140.457 32.2523 136.138C32.2523 136.138 25.8892 135.276 23.5491 137.574Z" fill="white"/>
<path fill-rule="evenodd" clip-rule="evenodd" d="M31.9649 145.286C31.9649 145.286 31.6454 140.457 32.2523 136.138C32.2523 136.138 25.8892 135.276 23.5491 137.574C23.5491 137.574 26.469 136.792 28.6366 137.185C28.6366 137.185 28.9219 142.163 31.9649 145.286Z" fill="#DADCDD"/>
<path fill-rule="evenodd" clip-rule="evenodd" d="M34.5515 134.292C34.5925 133.574 35.8038 132.199 37.8358 131.83C37.8358 131.83 39.5394 133.39 39.2932 138.066C39.2932 138.066 35.886 136.117 34.5515 134.292Z" fill="white"/>
<path fill-rule="evenodd" clip-rule="evenodd" d="M34.5515 134.292C34.5925 133.574 35.8038 132.199 37.8358 131.83C37.8358 131.83 39.5297 133.381 39.295 138.027L39.2203 138.024C39.2203 138.024 38.3084 133.132 37.0603 133.264C35.8125 133.395 34.5515 134.292 34.5515 134.292Z" fill="#DADCDD"/>
<path fill-rule="evenodd" clip-rule="evenodd" d="M38.8623 130.723C38.8623 130.723 41.0378 127.995 43.7886 127.708C43.7886 127.708 45.4307 130.046 44.6098 134.661C44.6098 134.661 40.7919 133.718 38.8623 130.723Z" fill="white"/>
<path fill-rule="evenodd" clip-rule="evenodd" d="M38.8623 130.723C38.8623 130.723 41.0378 127.995 43.7886 127.708C43.7886 127.708 45.4307 130.046 44.6098 134.661C44.6098 134.661 43.6948 129.999 42.2496 129.851C40.8046 129.703 38.8623 130.723 38.8623 130.723Z" fill="#DADCDD"/>
<path fill-rule="evenodd" clip-rule="evenodd" d="M49.9263 123.996C49.9263 123.996 51.2605 126.991 50.583 131.277C50.583 131.277 46.9843 130.17 44.5005 126.991C45.7788 125.234 47.6106 124.143 49.9263 123.996Z" fill="white"/>
<path fill-rule="evenodd" clip-rule="evenodd" d="M49.9263 123.996C49.9263 123.996 51.2605 126.991 50.583 131.277C48.6862 125.073 44.5005 126.991 44.5005 126.991C45.7788 125.234 47.6106 124.143 49.9263 123.996Z" fill="#DADCDD"/>
<path fill-rule="evenodd" clip-rule="evenodd" d="M51.2612 123.998C51.2612 123.998 52.5546 122.008 55.8799 121.926C55.8799 121.926 56.8653 124.408 56.0853 128.018C56.0853 128.018 52.5136 127.669 51.2612 123.998Z" fill="white"/>
<path fill-rule="evenodd" clip-rule="evenodd" d="M51.2612 123.998C51.2612 123.998 52.5546 122.008 55.8799 121.926C55.8799 121.926 56.8653 124.408 56.0853 128.018C55.2188 121.576 51.2612 123.998 51.2612 123.998Z" fill="#DADCDD"/>
<path fill-rule="evenodd" clip-rule="evenodd" d="M57.5427 121.783C57.6864 122.111 58.0353 125.126 62.2023 126.131C62.5971 120.097 57.5427 121.783 57.5427 121.783Z" fill="white"/>
<path fill-rule="evenodd" clip-rule="evenodd" d="M20.5337 116.245C20.5337 116.245 19.3024 119.731 21.6013 123.424C21.6013 123.424 29.0321 123.218 29.7708 118.173C30.5098 113.127 29.7298 110.256 29.7298 110.256C29.7298 110.256 21.3754 114.259 21.8887 118.809C21.2133 118.093 20.745 117.206 20.5337 116.245Z" fill="#0C7D70"/>
<path fill-rule="evenodd" clip-rule="evenodd" d="M47.9832 99.168C62.2247 86.8382 67.7237 95.7966 79.6762 87.436C72.6377 98.9776 58.9415 91.7819 47.9832 99.168Z" fill="#0C7D70"/>
<path fill-rule="evenodd" clip-rule="evenodd" d="M48.27 141.579C48.27 141.579 47.0387 147.24 50.1176 153.271C50.1176 153.271 55.167 152.655 55.9472 148.43C55.9472 148.43 50.9795 146.666 48.27 141.579Z" fill="white"/>
<path fill-rule="evenodd" clip-rule="evenodd" d="M53.4423 152.035C54.5681 151.31 55.6241 150.18 55.9472 148.43C55.9472 148.43 50.9795 146.666 48.27 141.579C48.27 141.579 48.4272 146.532 53.4423 152.035Z" fill="#DADCDD"/>
<path fill-rule="evenodd" clip-rule="evenodd" d="M38.9513 143.385C38.9513 143.385 37.4732 147.199 38.4176 151.179C38.4176 151.179 41.1681 152.943 42.6873 151.794C44.2062 150.645 39.9367 146.256 38.9513 143.385Z" fill="white"/>
<path fill-rule="evenodd" clip-rule="evenodd" d="M40.0557 151.941C40.9189 152.223 41.9484 152.353 42.6872 151.794C44.2033 150.647 39.9515 146.271 38.9565 143.4C39.0643 143.709 40.7767 148.7 40.0554 151.941L40.0557 151.941Z" fill="#DADCDD"/>
<path fill-rule="evenodd" clip-rule="evenodd" d="M43.6726 147.261C43.6726 147.261 42.0914 150.481 42.6872 151.794C43.2827 153.107 46.8134 152.717 43.6726 147.261Z" fill="white"/>
<path fill-rule="evenodd" clip-rule="evenodd" d="M43.2158 152.308C44.3117 152.817 46.2654 151.765 43.6727 147.261C43.6727 147.261 44.4486 150.398 43.2158 152.308Z" fill="#DADCDD"/>
<path fill-rule="evenodd" clip-rule="evenodd" d="M46.0219 146.338C46.0219 146.338 43.8252 150.811 44.6526 152.635C45.4798 154.459 50.385 153.918 46.0219 146.338Z" fill="white"/>
<path fill-rule="evenodd" clip-rule="evenodd" d="M45.042 153.133C46.4235 154.263 49.9184 153.107 46.0221 146.338C46.0221 146.338 47.5198 152.177 45.042 153.133Z" fill="#DADCDD"/>
<path fill-rule="evenodd" clip-rule="evenodd" d="M56.831 135.714C56.8515 135.94 56.4001 139.529 59.2124 141.17C59.2124 141.17 59.8691 138.38 60.957 137.458C60.957 137.458 59.0889 137.232 56.831 135.714Z" fill="white"/>
<path fill-rule="evenodd" clip-rule="evenodd" d="M59.71 139.571C60.009 138.781 60.4328 137.902 60.9571 137.458C60.9571 137.458 59.089 137.232 56.8311 135.714C56.8311 135.714 57.5296 138.801 59.7097 139.571H59.71Z" fill="#DADCDD"/>
<path fill-rule="evenodd" clip-rule="evenodd" d="M52.6203 170.541C52.6203 170.541 58.2855 169.679 60.5847 168.161C60.5847 168.161 60.5027 178.088 51.1836 186.005C51.1836 186.005 53.9753 175.052 52.6203 170.541Z" fill="#16E2B1"/>
<path fill-rule="evenodd" clip-rule="evenodd" d="M52.6203 170.541C52.6203 170.541 54.6083 170.239 56.707 169.676C56.707 169.676 57.0357 177.107 51.1836 186.005C51.1836 186.005 53.9753 175.052 52.6203 170.541Z" fill="#A0FFD7"/>
<path fill-rule="evenodd" clip-rule="evenodd" d="M39.484 168.202C39.7301 168.366 41.0197 169.284 45.4366 170.458C45.4366 170.458 43.1786 179.319 36.5283 182.6C36.5283 182.6 39.9765 175.504 39.484 168.202Z" fill="#16E2B1"/>
<path fill-rule="evenodd" clip-rule="evenodd" d="M39.484 168.202C39.6602 168.319 40.3711 168.823 42.3802 169.53V169.53C42.3802 169.53 42.3719 176.334 36.5283 182.6C36.5283 182.6 39.9765 175.504 39.484 168.202Z" fill="#A0FFD7"/>
<path fill-rule="evenodd" clip-rule="evenodd" d="M81.3147 167.955C81.3147 167.955 75.4851 171.647 71.2979 174.108C71.2979 174.108 77.5381 186.497 84.8454 191.994C84.8454 191.994 90.2642 183.625 91.0032 176.242C91.0032 176.242 83.5317 170.744 81.3147 167.955Z" fill="#A0FFD7"/>
<path fill-rule="evenodd" clip-rule="evenodd" d="M73.8434 184.446C73.8434 184.446 78.1949 190.845 82.5465 194.947C82.5465 194.947 77.4119 202.74 71.2161 207.336C71.2161 207.336 65.2223 204.465 56.4368 194.537C56.4368 194.537 69.7379 187.974 73.8434 184.446Z" fill="#A0FFD7"/>
<path fill-rule="evenodd" clip-rule="evenodd" d="M94.0417 155.566C94.0417 155.566 94.2057 163.607 91.0858 169.678C91.0858 169.678 83.6138 166.396 79.5085 157.043L84.3528 150.726C84.3528 150.726 90.1002 153.105 94.0417 155.566Z" fill="#A0FFD7"/>
<path fill-rule="evenodd" clip-rule="evenodd" d="M94.0415 176.241C94.0415 176.241 92.2969 187.311 88.8689 192.814C88.8689 192.814 108 187.153 115.718 176.733L116.169 172.836C116.169 172.836 109.764 172.836 104.756 170.539C104.756 170.539 99.9938 174.641 94.0415 176.241Z" fill="#A0FFD7"/>
<path fill-rule="evenodd" clip-rule="evenodd" d="M96.5451 142.479C96.5451 142.479 96.1015 147.166 95.0671 151.832L86.1174 148.468L87.1436 145.761C87.1436 145.761 89.4015 143.833 96.5451 142.479Z" fill="#A0FFD7"/>
<path fill-rule="evenodd" clip-rule="evenodd" d="M100.322 142.848C100.322 142.848 100.076 148.181 99.0083 152.283C99.0083 152.283 110.175 152.284 113.952 150.971C117.728 149.658 118.796 145.884 118.796 145.884C118.796 145.884 105.577 141.289 100.322 142.848Z" fill="#A0FFD7"/>
<path fill-rule="evenodd" clip-rule="evenodd" d="M107.063 60.409C104.736 65.7624 100.78 71.6178 94.0995 76.8459C93.134 77.7239 92.1146 78.5407 91.0471 79.2915C91.9035 79.2251 92.7835 79.1756 93.6869 79.1431C103.356 78.8015 112.503 76.1957 119.451 72.5695C134.094 55.7382 138.141 24.6682 138.141 24.6682C129.11 47.4763 107.063 60.4095 107.063 60.409Z" fill="#16E2B1"/>
<path fill-rule="evenodd" clip-rule="evenodd" d="M107.063 60.409C104.736 65.7624 100.78 71.6178 94.0995 76.8459C93.134 77.7239 92.1146 78.5407 91.0471 79.2915C125.472 65.02 138.141 24.6682 138.141 24.6682C129.11 47.4763 107.063 60.4095 107.063 60.409Z" fill="#A0FFD7"/>
<path fill-rule="evenodd" clip-rule="evenodd" d="M29.7301 110.256C29.7301 110.256 30.51 113.127 29.771 118.173C29.0323 123.218 21.6015 123.424 21.6015 123.424C19.3026 119.731 20.5339 116.245 20.5339 116.245C20.7452 117.206 21.2135 118.093 21.8889 118.809C21.3756 114.259 29.7301 110.256 29.7301 110.256ZM79.6763 87.4361C72.6379 98.9776 58.9416 91.7819 47.9833 99.1681C62.2249 86.8383 67.7239 95.7967 79.6763 87.4361ZM95.1861 90.3163C74.372 116.742 63.3728 106.388 41.5705 110.909C41.9811 110.253 49.6173 99.2595 61.6047 98.4389C73.592 97.6181 85.5799 96.9618 95.1861 90.3163ZM122.833 74.0581C122.833 74.0581 115.775 81.1786 95.1627 82.1808C74.5507 83.1826 68.4802 86.7731 68.4802 86.7731C68.713 86.2309 76.4889 80.4195 91.0471 79.2915C92.1146 78.5407 93.1341 77.7239 94.0995 76.8459C94.0995 76.8459 101.653 67.0827 102.064 60.6832C102.064 60.6832 96.813 62.0422 89.0593 66.5935C88.0688 67.8731 87.0124 68.9266 85.9068 69.5954C84.6695 70.3438 82.8969 71.1986 80.8024 72.104C77.7612 74.3909 74.8542 76.8506 72.0955 79.471C71.9793 79.2385 73.6005 76.9234 76.2936 73.9483C68.0793 77.1567 57.7706 80.5253 53.5571 81.901C47.2759 83.952 40.3379 86.8237 38.4081 89.4903C30.6037 100.275 30.7385 100.852 18.1285 108.893C11.8886 112.872 12.9154 119.477 12.9154 119.477C10.7807 115.826 11.0679 112.011 11.0679 112.011C10.3292 113.365 7.4147 119.969 8.39955 126.451C9.38476 132.932 17.7596 133.753 23.0965 134.245C28.4333 134.738 32.1287 132.522 32.1287 132.522C32.1287 132.522 45.9224 118.329 64.2322 119.067C82.5418 119.805 85.4977 111.519 85.4977 111.519C85.2734 112.936 84.6799 114.27 83.7768 115.385C83.6071 117.808 82.3075 125.912 72.5926 129.517C54.0632 136.394 63.4025 154.002 50.0136 154.869C41.5595 155.416 37.6 152.388 37.2491 152.105C37.2327 152.116 37.2171 152.129 37.2023 152.142C37.0326 152.621 35.9347 155.956 36.7802 159.863C37.3053 162.295 38.2324 162.798 40.4766 164.188C43.2309 165.893 47.7 167.671 53.5623 166.687C59.1611 165.748 62.3808 162.757 65.1696 158.973C71.1457 150.864 75.1432 139.111 96.3394 136.085C99.4833 135.636 102.319 135.35 104.875 135.186C103.695 130.25 102.589 119.499 112.419 111.97C104.894 113.38 101.157 112.618 101.157 112.618C101.157 112.618 109.74 111.98 119.272 108.093C119.275 108.091 119.278 108.09 119.281 108.089C126.502 105.143 134.266 100.331 139.255 92.5171C139.255 92.5171 122.614 98.437 107.315 96.2913C107.315 96.2913 121.766 94.9788 129.32 85.1337C129.32 85.1337 118.236 89.8923 106.905 88.2514C106.905 88.2514 117.825 86.6929 122.833 74.0581Z" fill="#16E2B1"/>
<path fill-rule="evenodd" clip-rule="evenodd" d="M32.1287 132.522C32.1287 132.522 45.9223 118.329 64.2321 119.067C82.5418 119.805 85.4977 111.519 85.4977 111.519C85.2734 112.936 84.6799 114.27 83.7767 115.385C83.6071 117.808 82.3075 125.912 72.5926 129.517C54.0632 136.394 63.4024 154.002 50.0136 154.869C41.5595 155.416 37.5999 152.388 37.249 152.105C37.2327 152.116 37.2171 152.129 37.2023 152.142C46.2487 158.109 52.6716 157.45 56.352 154.595C64.8504 148.001 55.6563 139.739 77.2757 130.434C93.5937 123.41 89.6241 104.245 89.6241 104.245C89.6241 104.245 80.8211 114.024 61.3783 115.993C41.9353 117.961 32.1287 132.522 32.1287 132.522Z" fill="#1AC084"/>
<path fill-rule="evenodd" clip-rule="evenodd" d="M37.2488 152.105C37.2325 152.116 37.2169 152.129 37.2021 152.142C37.0324 152.621 35.9345 155.956 36.78 159.863C37.3051 162.295 38.2322 162.798 40.4764 164.188C43.2306 165.893 47.6998 167.671 53.5621 166.687C59.1609 165.748 62.3806 162.757 65.1694 158.973C71.1455 150.864 75.143 139.111 96.3392 136.085C99.4831 135.636 102.319 135.35 104.875 135.186C103.695 130.25 102.589 119.499 112.419 111.97C110.345 112.368 108.247 112.634 106.139 112.765L106.139 112.765C98.5969 119.27 98.9531 132.088 98.9531 132.088C78.3279 133.269 70.5107 143.837 65.5843 152.304C60.6578 160.771 52.7752 164.315 44.4332 162.411C36.0913 160.508 37.2488 152.105 37.2488 152.105Z" fill="#A0FFD7"/>
<path fill-rule="evenodd" clip-rule="evenodd" d="M72.0955 79.471C71.9793 79.2385 73.6005 76.9234 76.2936 73.9483C68.0793 77.1567 57.7706 80.5253 53.5571 81.901C47.2759 83.952 40.3379 86.8237 38.4081 89.4903C30.6037 100.275 30.7385 100.852 18.1285 108.893C11.8886 112.872 12.9154 119.477 12.9154 119.477C10.7807 115.826 11.0679 112.011 11.0679 112.011C10.3292 113.365 7.4147 119.969 8.39955 126.451C8.82767 129.267 10.6515 131.014 13.0147 132.13C12.9272 132.059 8.66051 128.539 10.7412 120.873C10.7412 120.873 11.7266 122.055 14.748 122.777C14.748 122.777 13.0404 113.982 19.8717 110.372C26.7029 106.762 35.7681 100.856 38.1982 95.0143C40.6283 89.1726 64.9394 80.9274 72.0955 79.471ZM98.789 69.6728C100.419 66.7416 101.889 63.4079 102.064 60.6832C102.064 60.6832 96.8131 62.0422 89.0594 66.5935C88.0688 67.8731 87.0124 68.9266 85.9068 69.5954C84.6695 70.3438 82.8969 71.1986 80.8024 72.104C77.7612 74.3909 74.8542 76.8506 72.0955 79.471C79.2515 78.0146 94.0231 66.2544 98.789 69.6728Z" fill="#A0FFD7"/>
<path fill-rule="evenodd" clip-rule="evenodd" d="M128.412 70.7158C127.537 73.4373 123.895 81.3129 119.632 85.2143C119.632 85.2143 132.85 81.277 139.665 73.4825C139.665 73.4825 136.956 85.3786 129.32 90.7116C133.407 89.6008 137.415 88.219 141.318 86.5753C167.916 61.656 173.117 33.734 173.117 33.734C161.047 50.9631 129.287 67.9946 128.412 70.7158Z" fill="#16E2B1"/>
<path fill-rule="evenodd" clip-rule="evenodd" d="M128.412 70.7158C127.537 73.4373 123.895 81.3129 119.632 85.2143C149.428 69.3209 173.117 33.734 173.117 33.734C161.047 50.9631 129.287 67.9946 128.412 70.7158Z" fill="#A0FFD7"/>
<path fill-rule="evenodd" clip-rule="evenodd" d="M129.305 147.942C125.529 156.967 109.434 160.7 101.881 159.551C101.881 159.551 99.1941 159.38 97.0137 158.814C97.0137 158.814 103.336 164.762 114.297 164.721C114.297 164.721 111.012 166.321 109.452 166.691C109.452 166.691 141.349 173.254 147.589 143.226C147.589 143.226 148.452 145.769 148.534 146.918C152.005 144.881 160.625 113.291 118.637 114.215C118.637 114.215 111.049 118.797 111.578 129.083C116.894 128.83 126.61 130.454 130.291 136.292C130.291 136.292 128.362 135.02 126.555 134.979C126.555 134.979 133.082 138.917 129.305 147.942Z" fill="#16E2B1"/>
<path fill-rule="evenodd" clip-rule="evenodd" d="M102.582 159.641C102.341 159.615 102.107 159.585 101.881 159.551C101.881 159.551 99.1941 159.38 97.0137 158.814C97.0137 158.814 103.336 164.762 114.297 164.721C114.297 164.721 111.012 166.321 109.452 166.691C109.452 166.691 141.349 173.254 147.589 143.226C147.589 143.226 148.452 145.769 148.534 146.918C152.005 144.881 160.625 113.291 118.637 114.215C118.637 114.215 117.067 115.164 115.405 117.166C131.836 115.514 150.371 120.836 149.206 139.745L146.512 135.807C146.512 135.807 146.972 162.455 118.99 164.686L122.865 161.798C122.865 161.798 111.172 164.049 102.582 159.641Z" fill="#A0FFD7"/>
<path fill-rule="evenodd" clip-rule="evenodd" d="M99.0084 152.283C100.076 148.181 100.322 142.848 100.322 142.848C105.577 141.289 118.796 145.884 118.796 145.884C118.796 145.884 117.729 149.658 113.952 150.971C110.175 152.284 99.0084 152.283 99.0084 152.283ZM95.0671 151.832L86.1174 148.468L87.1435 145.761C87.1435 145.761 89.4014 143.833 96.545 142.479C96.545 142.479 96.1015 147.166 95.0671 151.832ZM82.7109 203.972C82.7109 203.972 85.092 197.737 87.1447 196.26C87.1447 196.26 105.043 194.127 115.553 181.82C115.553 181.82 113.747 192.322 111.941 196.424L82.7109 203.972ZM88.8689 192.814C92.2969 187.311 94.0415 176.241 94.0415 176.241C99.9938 174.641 104.756 170.539 104.756 170.539C109.764 172.836 116.169 172.836 116.169 172.836L115.718 176.733C108 187.153 88.8689 192.814 88.8689 192.814ZM91.0858 169.678C91.0858 169.678 83.6138 166.396 79.5085 157.043L84.3527 150.726C84.3527 150.726 90.1001 153.105 94.0417 155.566C94.0417 155.566 94.2057 163.607 91.0858 169.678ZM121.039 171.412C112.161 171.555 103.391 167.677 97.0136 158.814C99.1941 159.38 101.881 159.551 101.881 159.551C101.881 159.551 120.922 157.824 121.987 144.61C117.203 142.432 109.267 139.921 98.9667 140.597C91.4902 141.088 86.3193 143.216 82.4314 146.104C80.6618 151.366 75.5657 155.917 75.5657 155.917C77.3393 160.643 80.2623 164.482 80.2623 164.482L66.9609 172.26L71.0007 181.252C66.6652 184.534 52.2145 191.229 52.2145 191.229C53.3311 197.596 55.7612 200.681 55.7612 200.681C49.7842 204.488 40.7852 207.704 40.7852 207.704C41.5734 212.823 43 217 47 222C51 227 61.5 232.5 73 234.5C84.5 236.5 99.5 235.5 99.5 235.5C99.5 235.5 111.012 210.297 113.5 203.5C115.988 196.703 117.954 194.72 121.039 171.412ZM84.8453 191.994C77.538 186.497 71.2978 174.108 71.2978 174.108C75.485 171.647 81.3146 167.955 81.3146 167.955C83.5316 170.744 91.0031 176.242 91.0031 176.242C90.2641 183.625 84.8453 191.994 84.8453 191.994ZM71.216 207.336C71.216 207.336 65.2222 204.465 56.4367 194.537C56.4367 194.537 69.7378 187.974 73.8433 184.446C73.8433 184.446 78.1948 190.845 82.5464 194.947C82.5464 194.947 77.4118 202.74 71.216 207.336Z" fill="#16E2B1"/>
<path fill-rule="evenodd" clip-rule="evenodd" d="M69.682 210.683C69.682 210.683 62.7801 208.239 57.6564 202.857C57.6564 202.857 50.2999 207.058 45.045 208.764C45.045 208.764 44.5 219 59.5001 227L69.682 210.683Z" fill="#A0FFD7"/>
<path fill-rule="evenodd" clip-rule="evenodd" d="M104.547 166.368L104.546 166.367L104.362 166.47L103.028 166.786L103.575 166.899C102.022 167.726 98.8759 169.307 96.1824 170.062C96.1824 170.062 97.4572 166.369 97.7568 161.168C98.5544 161.715 99.3815 162.217 100.234 162.673C101.553 164.037 102.997 165.274 104.547 166.368ZM97.7263 156.443C97.7263 156.443 109.491 156.64 114.315 155.656C112.374 156.776 110.309 157.586 108.431 158.166C106.086 158.444 103.892 158.455 102.09 158.181L102.029 158.172L101.968 158.168C100.562 158.083 99.1649 157.886 97.7903 157.578C97.7753 157.204 97.7539 156.825 97.7263 156.443Z" fill="#A0FFD7"/>
<path fill-rule="evenodd" clip-rule="evenodd" d="M127.221 170.535C127.348 175.347 123.162 214.597 120.5 231L145 222.5C145 222.5 157.242 172.873 152.779 154.032C151.903 155.596 150.931 157.19 149.85 158.813C149.85 158.813 151.574 155.244 151.862 151.429C146.6 161.005 137.553 168.278 127.221 170.535Z" fill="#16E2B1"/>
<path fill-rule="evenodd" clip-rule="evenodd" d="M127.221 170.535C127.349 175.347 124.5 201.5 109.708 234.023L121 231C120.219 227.478 135.294 185.423 135.806 181.328C137.907 164.533 153.721 164.37 153.735 164.37V164.367L152.972 154.895C152.912 154.608 152.847 154.32 152.78 154.032C151.904 155.596 150.932 157.19 149.85 158.813C149.85 158.813 151.575 155.244 151.862 151.429C146.6 161.005 137.554 168.278 127.221 170.535Z" fill="#1AC084"/>
<path fill-rule="evenodd" clip-rule="evenodd" d="M155.76 147.932C157.444 154.867 163.968 196.709 160.736 210.5C160.736 210.5 178.5 204 180.684 187.291C181.198 183.36 172.938 168.646 160.736 157.782C160.736 157.782 174.283 162.376 177.567 164.099C177.567 164.099 175.35 146.378 161.228 133.579C161.228 133.579 172.723 137.681 176.828 141.291C176.828 141.291 173.544 120.124 161.228 111.099C161.228 111.099 170.424 112.411 176.171 114.873C176.171 114.873 170.989 95.705 151.029 85.6034C148.999 87.6018 147.728 88.6407 147.728 88.6407C143.066 95.4091 135.291 104.601 125.566 108.23C151.535 109.896 165.227 125.046 155.76 147.932Z" fill="#16E2B1"/>
<path fill-rule="evenodd" clip-rule="evenodd" d="M155.76 147.932C157.444 154.867 158 200 151.029 221C151.029 221 159 215.5 163 212C167 208.5 173 202.5 173 202.5C164.573 189.793 158.27 161.951 160.635 134.778C162.999 107.605 138.303 105.439 138.303 105.439C144.872 99.0067 151.029 85.6034 151.029 85.6034C148.999 87.6018 147.728 88.6407 147.728 88.6407C143.066 95.4091 135.291 104.601 125.566 108.23C151.535 109.896 165.227 125.046 155.76 147.932Z" fill="#1AC084"/>
<path fill-rule="evenodd" clip-rule="evenodd" d="M52.8689 140.041C52.8689 140.041 54.0799 146.031 57.241 147.261C57.241 147.261 58.657 144.533 58.4111 143.139C58.165 141.744 55.7016 142.277 52.8689 140.041Z" fill="white"/>
<path fill-rule="evenodd" clip-rule="evenodd" d="M57.6036 146.491C58.005 145.579 58.5746 144.065 58.4111 143.139C58.165 141.744 55.7016 142.277 52.8689 140.041C52.8689 140.041 56.1912 142.797 57.6036 146.491Z" fill="#DADCDD"/>
<path fill-rule="evenodd" clip-rule="evenodd" d="M93.8451 85.2388C106.062 85.7639 119.373 80.4674 122.833 74.0581C122.833 74.0581 115.775 81.1786 95.1625 82.1807C74.5505 83.1825 68.48 86.773 68.48 86.773C68.48 86.773 81.6279 84.7136 93.8451 85.2388Z" fill="#A0FFD7"/>
<path fill-rule="evenodd" clip-rule="evenodd" d="M129.32 85.1337C129.32 85.1337 118.236 89.8923 106.905 88.2514C106.905 88.2514 116.517 94.1517 129.32 85.1337Z" fill="#A0FFD7"/>
<path fill-rule="evenodd" clip-rule="evenodd" d="M139.255 92.5171C139.255 92.5171 122.614 98.437 107.316 96.2913C107.316 96.2913 119.001 99.2847 129.642 98.1031C129.642 98.1031 119.178 109.345 101.157 112.618C101.157 112.618 104.126 112.387 108.443 111.44C112.137 110.631 115.757 109.512 119.263 108.096C119.269 108.094 119.275 108.091 119.281 108.089C126.502 105.143 134.266 100.331 139.255 92.5171Z" fill="#A0FFD7"/>
<path fill-rule="evenodd" clip-rule="evenodd" d="M177 197.5C177 197.5 181 191.5 181 187C181 183.452 172.938 168.646 160.736 157.782C168.185 167.578 177 197.5 177 197.5Z" fill="#A0FFD7"/>
<path fill-rule="evenodd" clip-rule="evenodd" d="M169.953 161.032C173.123 162.194 176.215 163.39 177.568 164.099C177.568 164.099 175.35 146.378 161.228 133.579C169.235 145.229 169.953 161.032 169.953 161.032Z" fill="#A0FFD7"/>
<path fill-rule="evenodd" clip-rule="evenodd" d="M170.055 137.249C172.688 138.503 175.282 139.932 176.828 141.291C176.828 141.291 173.544 120.124 161.228 111.099C169.628 121.797 170.055 137.249 170.055 137.249Z" fill="#A0FFD7"/>
<path fill-rule="evenodd" clip-rule="evenodd" d="M169.929 112.848C172.085 113.399 174.309 114.076 176.171 114.873C176.171 114.873 170.989 95.705 151.029 85.6034C167.491 98.767 169.929 112.848 169.929 112.848Z" fill="#A0FFD7"/>
<path fill-rule="evenodd" clip-rule="evenodd" d="M75.5 213.5C75.5 213.5 96.4999 212 108.81 206.001C108.81 206.001 99.6394 227.377 97.0001 231C97.0001 231 91.5 233 82 232.5C72.5 232 65.0242 229.447 65.0242 229.447C65.0242 229.447 73.1796 214.505 75.5 213.5Z" fill="#A0FFD7"/>
<path fill-rule="evenodd" clip-rule="evenodd" d="M87.1448 196.26C87.1448 196.26 105.043 194.127 115.553 181.82C115.553 181.82 113.5 196.26 110.23 200.452C110.23 200.452 93 209 77.5 208.5C77.5 208.5 85.092 197.737 87.1448 196.26Z" fill="#A0FFD7"/>
</svg>
