<svg width="30" height="30" viewBox="0 0 30 30" fill="none" xmlns="http://www.w3.org/2000/svg">
<rect width="30" height="30" rx="12" fill="#96E8CA"/>
<g clip-path="url(#clip0_151_2077)">
<path d="M15 17.8125C16.5533 17.8125 17.8125 16.5533 17.8125 15C17.8125 13.4467 16.5533 12.1875 15 12.1875C13.4467 12.1875 12.1875 13.4467 12.1875 15C12.1875 16.5533 13.4467 17.8125 15 17.8125Z" stroke="#221E42" stroke-width="2" stroke-linecap="round" stroke-linejoin="round"/>
<path d="M15.1441 20.4921C15.0499 20.4921 14.955 20.4921 14.8629 20.4921L12.6094 21.75C11.7321 21.4549 10.9184 20.9969 10.211 20.4L10.2026 17.8688C10.1527 17.79 10.1056 17.7105 10.062 17.629L7.8211 16.3528C7.6446 15.46 7.6446 14.5414 7.8211 13.6486L10.0598 12.3759C10.1056 12.2951 10.1527 12.2149 10.2005 12.1362L10.2117 9.60492C10.9185 9.00631 11.732 8.54661 12.6094 8.25L14.8594 9.50789C14.9536 9.50789 15.0485 9.50789 15.1406 9.50789L17.3906 8.25C18.2679 8.54509 19.0816 9.00311 19.789 9.6L19.7974 12.1312C19.8473 12.21 19.8945 12.2895 19.9381 12.371L22.1775 13.6465C22.354 14.5393 22.354 15.4579 22.1775 16.3507L19.9388 17.6234C19.8931 17.7042 19.8459 17.7844 19.7981 17.8631L19.7869 20.3944C19.0806 20.9931 18.2676 21.453 17.3906 21.75L15.1441 20.4921Z" stroke="#221E42" stroke-width="2" stroke-linecap="round" stroke-linejoin="round"/>
</g>
<defs>
<clipPath id="clip0_151_2077">
<rect width="18" height="18" fill="white" transform="translate(6 6)"/>
</clipPath>
</defs>
</svg>
