<svg width="30" height="30" viewBox="0 0 30 30" fill="none" xmlns="http://www.w3.org/2000/svg">
<rect width="30" height="30" rx="12" fill="#96E8CA"/>
<g clip-path="url(#clip0_151_2067)">
<path d="M9.74204 20.0625C9.74204 20.0625 11.625 18.9375 15 18.9375C18.375 18.9375 20.258 20.0625 20.258 20.0625L22.8595 12.0898C22.8785 12.0356 22.8809 11.977 22.8662 11.9215C22.8516 11.866 22.8208 11.8161 22.7776 11.7783C22.7344 11.7405 22.6809 11.7165 22.624 11.7094C22.567 11.7022 22.5092 11.7123 22.4581 11.7382L18.7013 13.6113C18.6362 13.6435 18.5615 13.6501 18.4918 13.6297C18.4222 13.6094 18.3627 13.5637 18.3251 13.5017L15.2475 8.39064C15.2218 8.34845 15.1856 8.31359 15.1425 8.2894C15.0994 8.26521 15.0508 8.2525 15.0014 8.2525C14.952 8.2525 14.9034 8.26521 14.8603 8.2894C14.8172 8.31359 14.7811 8.34845 14.7553 8.39064L11.6749 13.5038C11.6375 13.5661 11.5778 13.6121 11.508 13.6324C11.4381 13.6527 11.3631 13.646 11.2981 13.6134L7.54689 11.7417C7.49566 11.7159 7.43791 11.706 7.38101 11.7132C7.3241 11.7204 7.27064 11.7444 7.22746 11.7821C7.18428 11.8199 7.15334 11.8697 7.13859 11.9251C7.12385 11.9805 7.12598 12.0391 7.1447 12.0933L9.74204 20.0625Z" stroke="#221E42" stroke-width="2" stroke-linecap="round" stroke-linejoin="round"/>
</g>
<defs>
<clipPath id="clip0_151_2067">
<rect width="18" height="18" fill="white" transform="translate(6 6)"/>
</clipPath>
</defs>
</svg>
