<svg width="30" height="30" viewBox="0 0 30 30" fill="none" xmlns="http://www.w3.org/2000/svg">
<rect width="30" height="30" rx="12" fill="#96E8CA"/>
<g clip-path="url(#clip0_151_2098)">
<path d="M15.5161 8.03201L17.1495 11.9245C17.189 12.019 17.2536 12.1009 17.3362 12.1613C17.4189 12.2218 17.5164 12.2586 17.6184 12.2676L21.7992 12.629C21.9101 12.638 22.0159 12.6796 22.1032 12.7486C22.1905 12.8177 22.2553 12.9111 22.2895 13.017C22.3236 13.1229 22.3256 13.2366 22.2952 13.3436C22.2647 13.4507 22.2032 13.5463 22.1184 13.6183L18.9466 16.3851C18.8695 16.4529 18.8122 16.5402 18.7808 16.6379C18.7493 16.7356 18.7449 16.8399 18.768 16.9399L19.7187 21.056C19.7438 21.1635 19.7367 21.276 19.6983 21.3795C19.66 21.4831 19.592 21.573 19.5028 21.6381C19.4137 21.7033 19.3074 21.7408 19.1971 21.7459C19.0868 21.751 18.9775 21.7236 18.8827 21.667L15.2897 19.4873C15.2024 19.4342 15.1022 19.4062 15 19.4062C14.8978 19.4062 14.7976 19.4342 14.7103 19.4873L11.1173 21.667C11.0225 21.7236 10.9132 21.751 10.8029 21.7459C10.6926 21.7408 10.5863 21.7033 10.4972 21.6381C10.408 21.573 10.34 21.4831 10.3017 21.3795C10.2633 21.276 10.2562 21.1635 10.2813 21.056L11.232 16.9399C11.2551 16.8399 11.2507 16.7356 11.2192 16.6379C11.1878 16.5402 11.1305 16.4529 11.0534 16.3851L7.88156 13.6183C7.79677 13.5463 7.73525 13.4507 7.70481 13.3436C7.67436 13.2366 7.67635 13.1229 7.71053 13.017C7.7447 12.9111 7.80952 12.8177 7.89679 12.7486C7.98406 12.6796 8.08985 12.638 8.20078 12.629L12.3816 12.2676C12.4836 12.2586 12.5812 12.2218 12.6638 12.1613C12.7464 12.1009 12.811 12.019 12.8505 11.9245L14.4839 8.03201C14.5275 7.93137 14.5996 7.84569 14.6913 7.7855C14.783 7.72531 14.8903 7.69324 15 7.69324C15.1097 7.69324 15.217 7.72531 15.3087 7.7855C15.4004 7.84569 15.4725 7.93137 15.5161 8.03201Z" stroke="#221E42" stroke-width="2" stroke-linecap="round" stroke-linejoin="round"/>
</g>
<defs>
<clipPath id="clip0_151_2098">
<rect width="18" height="18" fill="white" transform="translate(6 6)"/>
</clipPath>
</defs>
</svg>
