<svg width="30" height="30" viewBox="0 0 30 30" fill="none" xmlns="http://www.w3.org/2000/svg">
<rect width="30" height="30" rx="12" fill="#96E8CA"/>
<g clip-path="url(#clip0_151_2087)">
<path d="M15 19.5C15.466 19.5 15.8438 19.1222 15.8438 18.6562C15.8438 18.1903 15.466 17.8125 15 17.8125C14.534 17.8125 14.1562 18.1903 14.1562 18.6562C14.1562 19.1222 14.534 19.5 15 19.5Z" fill="#221E42"/>
<path d="M15 16.125V15.5625C16.2424 15.5625 17.25 14.6808 17.25 13.5938C17.25 12.5067 16.2424 11.625 15 11.625C13.7576 11.625 12.75 12.5067 12.75 13.5938V13.875" stroke="#221E42" stroke-width="2" stroke-linecap="round" stroke-linejoin="round"/>
<path d="M15 21.75C18.7279 21.75 21.75 18.7279 21.75 15C21.75 11.2721 18.7279 8.25 15 8.25C11.2721 8.25 8.25 11.2721 8.25 15C8.25 18.7279 11.2721 21.75 15 21.75Z" stroke="#221E42" stroke-width="2" stroke-linecap="round" stroke-linejoin="round"/>
</g>
<defs>
<clipPath id="clip0_151_2087">
<rect width="18" height="18" fill="white" transform="translate(6 6)"/>
</clipPath>
</defs>
</svg>
