<svg width="32" height="32" viewBox="0 0 32 32" fill="none" xmlns="http://www.w3.org/2000/svg">
<g clip-path="url(#clip0_151_1435)">
<path d="M18 28H14" stroke="#1E2142" stroke-width="2" stroke-linecap="round" stroke-linejoin="round"/>
<path d="M16 14C16.8284 14 17.5 13.3284 17.5 12.5C17.5 11.6716 16.8284 11 16 11C15.1716 11 14.5 11.6716 14.5 12.5C14.5 13.3284 15.1716 14 16 14Z" fill="#1E2142"/>
<path d="M11.8514 24C4.69011 11.915 12.9839 4.06626 15.3864 2.21001C15.5619 2.07358 15.7778 1.99951 16.0001 1.99951C16.2224 1.99951 16.4384 2.07358 16.6139 2.21001C19.0164 4.06626 27.3101 11.915 20.1489 24H11.8514Z" stroke="#1E2142" stroke-width="2" stroke-linecap="round" stroke-linejoin="round"/>
<path d="M22.9799 13.86L26.7687 18.405C26.8665 18.5225 26.9361 18.661 26.9721 18.8096C27.0081 18.9583 27.0095 19.1132 26.9762 19.2625L25.4312 26.2162C25.3943 26.3821 25.3159 26.5358 25.2032 26.6629C25.0905 26.7899 24.9473 26.8862 24.7871 26.9426C24.6268 26.9991 24.4549 27.0137 24.2874 26.9853C24.12 26.9568 23.9625 26.8862 23.8299 26.78L20.1487 24" stroke="#1E2142" stroke-width="2" stroke-linecap="round" stroke-linejoin="round"/>
<path d="M9.01999 13.86L5.23123 18.405C5.13337 18.5225 5.06378 18.661 5.02781 18.8096C4.99183 18.9583 4.99044 19.1132 5.02373 19.2625L6.56873 26.2162C6.60557 26.3821 6.68403 26.5358 6.79673 26.6629C6.90942 26.7899 7.05263 26.8862 7.21285 26.9426C7.37307 26.9991 7.54502 27.0137 7.71248 26.9853C7.87994 26.9568 8.03739 26.8862 8.16998 26.78L11.8512 24" stroke="#1E2142" stroke-width="2" stroke-linecap="round" stroke-linejoin="round"/>
</g>
<defs>
<clipPath id="clip0_151_1435">
<rect width="32" height="32" fill="white"/>
</clipPath>
</defs>
</svg>
