<svg width="32" height="32" viewBox="0 0 32 32" fill="none" xmlns="http://www.w3.org/2000/svg">
<path d="M11.2158 6.75166L11.2159 6.75164C11.4476 6.64062 11.6258 6.44158 11.7115 6.1985C11.7972 5.95545 11.7835 5.68808 11.6734 5.45516C11.5633 5.22221 11.3657 5.04263 11.1238 4.95617C10.882 4.8697 10.6159 4.88351 10.3841 4.99455C5.83738 7.17261 2.9 11.8498 2.9 16.9115C2.9 24.1831 8.77593 30.1 16 30.1C23.2241 30.1 29.1 24.1831 29.1 16.9115C29.1 11.8498 26.1626 7.17261 21.6159 4.99455C21.5011 4.93958 21.3768 4.90788 21.2498 4.90129C21.1229 4.8947 20.9959 4.91335 20.8762 4.95617C20.7564 4.99898 20.6463 5.0651 20.552 5.15073C20.4577 5.23636 20.3811 5.33981 20.3266 5.45516C20.272 5.5705 20.2406 5.69551 20.2341 5.82303C20.2276 5.95056 20.246 6.07814 20.2885 6.19851C20.3309 6.31887 20.3965 6.42968 20.4816 6.52459C20.5666 6.61951 20.6694 6.69667 20.7841 6.75164L20.7841 6.75165C24.6614 8.60835 27.1667 12.5957 27.1667 16.9115C27.1667 23.1115 22.1564 28.1549 16 28.1549C9.8436 28.1549 4.83333 23.1115 4.83333 16.9115C4.83333 12.5957 7.33862 8.60748 11.2158 6.75166Z" fill="#1E2142" stroke="#1E2142" stroke-width="0.2"/>
<path d="M15.226 10.8107C15.4329 10.9969 15.7115 11.1 16 11.1C16.2885 11.1 16.5671 10.9969 16.774 10.8107C16.9813 10.6242 17.1 10.3688 17.1 10.1V2.9C17.1 2.63118 16.9813 2.3758 16.774 2.18927C16.5671 2.00306 16.2885 1.9 16 1.9C15.7115 1.9 15.4329 2.00306 15.226 2.18927C15.0187 2.3758 14.9 2.63118 14.9 2.9V10.1C14.9 10.3688 15.0187 10.6242 15.226 10.8107Z" fill="#1E2142" stroke="#1E2142" stroke-width="0.2"/>
</svg>
